<?xml version="1.0" encoding="utf-8"?>
<!-- Generator: Adobe Illustrator 19.0.0, SVG Export Plug-In . SVG Version: 6.00 Build 0)  -->
<svg version="1.1" id="Layer_3" xmlns="http://www.w3.org/2000/svg" xmlns:xlink="http://www.w3.org/1999/xlink" x="0px" y="0px"
	 viewBox="0 0 110 65" style="enable-background:new 0 0 110 65;" xml:space="preserve">
<style type="text/css">
	.st0{fill:#83807F;}
</style>
<g id="XMLID_204_">
	<path id="XMLID_223_" class="st0" d="M54.5,39.6h-3.6v2.8h3.6c1.2,0,1.6-0.7,1.6-1.5C56.1,40.3,55.7,39.6,54.5,39.6z"/>
	<path id="XMLID_222_" class="st0" d="M55.6,19.3H52V22h3.6c1.2,0,1.6-0.5,1.6-1.3C57.2,20.1,56.8,19.3,55.6,19.3z"/>
	<polygon id="XMLID_221_" class="st0" points="11,23.4 14.5,23.4 12.7,19.3 	"/>
	<polygon id="XMLID_220_" class="st0" points="30.3,39.6 30.3,41.8 36.7,41.8 36.7,44 30.3,44 30.3,46.3 37,46.3 40.1,42.8 
		37.3,39.6 	"/>
	<polygon id="XMLID_219_" class="st0" points="78.2,19.3 76.5,23.4 80,23.4 	"/>
	<polygon id="XMLID_218_" class="st0" points="48,47.7 48,38.2 43.9,42.8 	"/>
	<path id="XMLID_206_" class="st0" d="M103.6,3.6H6.5c-2.3,0-4.2,1.9-4.2,4.2v50c0,2.3,1.9,4.2,4.2,4.2h97.1c2.3,0,4.2-1.9,4.2-4.2
		v-50C107.8,5.5,105.9,3.6,103.6,3.6z M70.2,16.8h3.8v2.6h-1.8c-1.9,0-3.4,0.2-3.4,3v0.9c0,2.1,1.1,2.6,1.8,2.7c0.2,0,1.8,0,1.8,0
		l4-9.1h3.8l4.9,11v-11h4.3l4.9,8.1v-8.1h2.9v11.8h-3.9L88,19.9v8.6h-5.7l-1.1-2.6h-5.8l-1.1,2.6h-3.8c-3.2,0-4.6-2.7-4.5-5.9
		C66,17.8,68.9,16.8,70.2,16.8z M61.6,16.8h2.9v11.8h-2.9V16.8z M38,16.8h9.4v2.5h-6.5v2.2h6.4v2.2h-6.4V26h6.5v2.5H38V16.8z
		 M22.6,19.8v8.7h-5.8l-1.1-2.6H9.9l-1.1,2.6h-3l5.1-11.7h3.8l5,11.3V16.8h4.5l3.5,7.9l3.5-7.9h4.6v11.7H33v-8.6l-3.9,8.6h-2.6
		L22.6,19.8z M54.7,44.8h-3.9v4h-5.5l-3.4-3.9l-3.5,3.9h-11V37h11.4l3.2,3.7l3.3-3.6h10.1c1.4,0,3.5,0.7,3.5,3.6
		C58.9,44.8,56.2,44.8,54.7,44.8z M60,26.1l0.1,2.4h-2.8l-0.1-2.2c0-1-0.4-2-1.4-2H52v4.1h-2.9V16.8h7.5c1.4,0,3.5,0.6,3.5,3.1
		c0,1.4-0.4,2.5-2,3.2C59.4,23.3,60,24.2,60,26.1z M71.3,46.4l0.1,2.4h-2.8l-0.1-2.2c0-1-0.4-2-1.4-2h-3.8v4.1h-2.9V37.1h7.5
		c1.4,0,3.5,0.6,3.5,3.1c0,1.4-0.4,2.5-2,3.2C70.7,43.6,71.3,44.5,71.3,46.4z M82.3,39.6h-6.5v2.2h6.4V44h-6.4v2.3h6.5v2.5h-9.4V37
		h9.4V39.6z M89.8,48.8h-6.1v-2.5h4.7c0.8,0,2,0,2-1.1c0-0.5-0.2-0.9-1.1-1c-0.4-0.1-1.8-0.1-2-0.1c-3.2-0.1-3.9-1.7-3.9-3.6
		c0-2.2,1.5-3.4,3.4-3.4h6.1v2.5h-4.4c-1,0-2.1-0.1-2.1,1c0,0.7,0.5,0.9,1.2,0.9c0.2,0,1.8,0.1,2,0.1c3.5,0.2,3.8,2,3.8,3.8
		C93.5,47.6,91.7,48.8,89.8,48.8z M100.6,48.8h-6.1v-2.5h4.7c0.8,0,2,0,2-1.1c0-0.5-0.2-0.9-1.1-1c-0.4-0.1-1.8-0.1-2-0.1
		c-3.2-0.1-3.9-1.7-3.9-3.6c0-2.2,1.5-3.4,3.4-3.4h6.1v2.5h-4.4c-1,0-2.1-0.1-2.1,1c0,0.7,0.5,0.9,1.2,0.9c0.2,0,1.8,0.1,2,0.1
		c3.5,0.2,3.8,2,3.8,3.8C104.3,47.6,102.5,48.8,100.6,48.8z"/>
	<path id="XMLID_205_" class="st0" d="M66.9,39.6h-3.6v2.7h3.6c1.2,0,1.6-0.5,1.6-1.3C68.5,40.3,68.1,39.6,66.9,39.6z"/>
</g>
<g id="XMLID_144_">
</g>
<g id="XMLID_145_">
</g>
<g id="XMLID_146_">
</g>
<g id="XMLID_147_">
</g>
<g id="XMLID_148_">
</g>
<g id="XMLID_149_">
</g>
</svg>
