<?xml version="1.0" encoding="utf-8"?>
<!-- Generator: Adobe Illustrator 16.0.0, SVG Export Plug-In . SVG Version: 6.00 Build 0)  -->
<!DOCTYPE svg PUBLIC "-//W3C//DTD SVG 1.1//EN" "http://www.w3.org/Graphics/SVG/1.1/DTD/svg11.dtd">
<svg version="1.1" id="Layer_1" xmlns="http://www.w3.org/2000/svg" xmlns:xlink="http://www.w3.org/1999/xlink" x="0px" y="0px"
	 width="709.756px" height="76.83px" viewBox="0 0 709.756 76.83" enable-background="new 0 0 709.756 76.83" xml:space="preserve">
<g>
	<polygon fill="#827F7F" points="84.519,43.037 89.549,43.037 87.737,34.227 	"/>
	<path fill="#827F7F" d="M107.875,10.389H10.807c-2.309,0-4.181,1.871-4.181,4.182v50.031c0,2.309,1.872,4.18,4.181,4.18h97.068
		c2.31,0,4.181-1.871,4.181-4.18V14.571C112.056,12.26,110.185,10.389,107.875,10.389z M33.527,51.361l-5.322-20.446
		c-3.457-2.076-6.41-2.689-6.41-2.689l0.113-0.398h9.656c2.658,0,2.906,2.119,2.906,2.119l2.062,10.583v-0.001l0.692,3.485
		l5.841-16.187h6.595l-9.748,23.534H33.527z M48.221,51.361l3.829-23.534h6.128l-3.83,23.534H48.221z M65.04,51.766
		c-4.182,0-6.917-1.33-6.917-1.33l0.91-5.282c2.51,2.014,10.112,2.584,10.112-0.609c0-3.191-8.476-3.268-8.476-9.348
		c0-6.462,7.221-7.791,10.262-7.791c2.812,0,5.51,1.025,5.51,1.025l-0.873,5.054c-2.622-1.444-8.59-1.786-8.59,0.875
		c0,2.66,8.552,3.23,8.552,9.35C75.53,49.601,69.221,51.766,65.04,51.766z M91.261,51.361l-0.719-3.495h-7.789l-1.278,3.495h-6.386
		l9.138-21.781c0,0,0.555-1.753,2.83-1.753h4.925l4.905,23.534H91.261z"/>
</g>
<g>
	<path fill="#827F7F" d="M293.197,38.048V24.005c2.823,1.083,4.828,3.816,4.832,7.022C298.025,34.232,296.02,36.963,293.197,38.048
		 M282.984,31.027c0.006-3.204,2.007-5.936,4.829-7.022v14.042C284.991,36.96,282.99,34.23,282.984,31.027 M290.505,19.156
		c-6.554,0.003-11.866,5.314-11.867,11.871c0.001,6.554,5.313,11.864,11.867,11.867c6.556-0.003,11.867-5.313,11.868-11.867
		C302.373,24.471,297.061,19.159,290.505,19.156"/>
	<g>
		<polygon fill="#827F7F" points="318.251,58.383 317.597,60.38 318.902,60.38 		"/>
		<path fill="#827F7F" d="M265.568,54.04c2.961,0,3.934-2.233,3.934-4.276c0-2.563-1.646-4.413-4.29-4.413
			c-0.563,0-0.821,0.04-1.07,0.055v7.456C264.141,53.917,264.897,54.04,265.568,54.04z"/>
		<polygon fill="#827F7F" points="293.904,58.383 293.247,60.38 294.553,60.38 		"/>
		<path fill="#827F7F" d="M306.91,57.715c-1.279,0.002-1.658,1.137-1.66,2.131c0,1.328,0.607,2.576,1.789,2.579
			c1.417-0.002,1.663-1.244,1.666-2.331C308.705,59.012,308.123,57.717,306.91,57.715z"/>
		<path fill="#827F7F" d="M285.554,49.915c0-0.7-0.425-1.262-1.192-1.262c-0.836,0-1.411,0.617-1.575,1.604h2.385
			C285.515,50.257,285.554,50.079,285.554,49.915z"/>
		<path fill="#827F7F" d="M282.344,57.768c-0.201,0-0.297,0.018-0.394,0.026v2.161h0.334c0.739-0.007,1.111-0.264,1.117-1.13
			C283.398,58.174,282.994,57.77,282.344,57.768z"/>
		<path fill="#827F7F" d="M322.072,54.329c1.469,0,2.084-1.44,2.084-2.661c0-1.479-1.122-2.713-2.191-2.713
			c-0.508,0-0.932,0.329-1.303,0.646v3.33C320.662,53.45,321.154,54.329,322.072,54.329z"/>
		<path fill="#827F7F" d="M342.111,11.255h-97.069c-2.308,0-4.182,1.871-4.182,4.18v50.031c0,2.31,1.874,4.182,4.182,4.182h97.069
			c2.308,0,4.181-1.872,4.181-4.182V15.436C346.292,13.126,344.418,11.255,342.111,11.255z M318.837,44.747
			c0.549-0.178,1.125-0.424,1.412-0.59c0.15-0.082,0.261-0.15,0.303-0.15c0.082,0,0.109,0.082,0.109,0.191v5.003
			c0.547-0.466,1.288-0.987,2.043-0.987c1.589,0,2.549,1.387,2.549,2.879c0,1.796-1.316,3.592-3.277,3.592
			c-1.014,0-1.549-0.329-1.903-0.479l-0.413,0.314l-0.287-0.15c0.123-0.809,0.193-1.604,0.193-2.44v-5.894
			c0-0.893-0.207-0.919-0.729-1.07V44.747z M312.067,48.516c0.493-0.014,1.589-0.096,1.767-0.096c0.152,0,0.152,0.096,0.152,0.396
			v3.537c0,0.412,0,1.59,1.192,1.59c0.466,0,1.082-0.356,1.658-0.835V49.42c0-0.273-0.658-0.424-1.151-0.561v-0.248
			c1.233-0.082,2.001-0.191,2.138-0.191c0.11,0,0.11,0.096,0.11,0.248v5.057c0,0.248,0.15,0.26,0.385,0.26
			c0.163,0,0.369-0.012,0.548-0.012v0.287c-0.59,0.055-1.714,0.343-1.974,0.424l-0.069-0.041v-1.109
			c-0.821,0.672-1.452,1.15-2.427,1.15c-0.74,0-1.508-0.479-1.508-1.63v-3.511c0-0.355-0.055-0.699-0.821-0.767V48.516z
			 M311.037,44.006c0.084,0,0.111,0.082,0.111,0.191v9.472c0,0.454,0.301,0.454,0.687,0.454h0.229v0.355
			c-0.465,0-0.943-0.027-1.438-0.027c-0.492,0-0.986,0.014-1.493,0.027v-0.355h0.259c0.386,0,0.659,0,0.659-0.454v-7.634
			c0-0.893-0.205-0.919-0.727-1.07v-0.219c0.549-0.178,1.124-0.424,1.411-0.59C310.885,44.075,310.996,44.006,311.037,44.006z
			 M290.476,18.086h6.1c7.088-0.003,13.559,5.342,13.559,13.075c0,7.074-6.471,12.886-13.559,12.852h-6.1
			c-7.172,0.034-13.076-5.778-13.076-12.852C277.4,23.429,283.304,18.083,290.476,18.086z M292.175,49.969
			c0-0.769,0.618-1.756,2.125-1.756c0.438,0,1.027,0.124,1.562,0.398l0.096,1.396h-0.314c-0.137-0.861-0.617-1.354-1.495-1.354
			c-0.548,0-1.069,0.315-1.069,0.904c0,1.604,3.18,1.109,3.18,3.261c0,0.906-0.725,1.865-2.357,1.865
			c-0.548,0-1.193-0.191-1.671-0.465l-0.151-1.576l0.247-0.07c0.179,0.905,0.726,1.674,1.728,1.674c0.809,0,1.108-0.494,1.108-0.975
			C295.163,51.655,292.175,52.176,292.175,49.969z M289.832,54.124h0.767v0.355c-0.754-0.014-1.328-0.027-1.918-0.027
			c-0.563,0-1.136,0.014-1.631,0.027v-0.355h0.37c0.384,0,0.657,0,0.657-0.454v-3.851c0-0.425-0.507-0.508-0.713-0.618v-0.205
			c1-0.425,1.549-0.782,1.675-0.782c0.08,0,0.121,0.043,0.121,0.181v1.233h0.029c0.34-0.535,0.917-1.414,1.754-1.414
			c0.342,0,0.78,0.232,0.78,0.727c0,0.371-0.26,0.7-0.646,0.7c-0.424,0-0.424-0.329-0.903-0.329c-0.234,0-1.001,0.316-1.001,1.139
			v3.22C289.173,54.124,289.447,54.124,289.832,54.124z M282.745,51.491c0.081,1.303,0.92,2.371,2.015,2.371
			c0.756,0,1.346-0.412,1.852-0.917l0.189,0.19c-0.629,0.838-1.411,1.549-2.533,1.549c-2.182,0-2.619-2.111-2.619-2.988
			c0-2.688,1.809-3.482,2.768-3.482c1.112,0,2.305,0.7,2.316,2.153c0,0.083,0,0.164-0.012,0.247l-0.124,0.082h-3.852
			C282.717,50.82,282.717,51.024,282.745,51.491z M272.958,44.758c0.354,0,0.67,0.289,0.67,0.66c0,0.369-0.303,0.686-0.67,0.686
			c-0.357,0-0.674-0.33-0.674-0.686C272.285,45.074,272.615,44.758,272.958,44.758z M271.49,54.124h0.262
			c0.383,0,0.657,0,0.657-0.454v-3.715c0-0.603-0.204-0.685-0.714-0.959v-0.219c0.645-0.193,1.414-0.452,1.467-0.492
			c0.098-0.057,0.179-0.071,0.248-0.071c0.067,0,0.096,0.084,0.096,0.193v5.263c0,0.454,0.302,0.454,0.686,0.454h0.232v0.355
			c-0.467,0-0.946-0.027-1.439-0.027c-0.494,0-0.986,0.014-1.494,0.027V54.124z M261.539,54.124c0.822-0.084,1.221-0.11,1.26-1.043
			v-6.648c0-1.233-0.645-1.151-1.26-1.165v-0.356c0.533,0.027,1.082,0.027,1.618,0.027c0.574,0,1.356-0.027,2.371-0.027
			c3.55,0,5.483,2.37,5.483,4.799c0,1.355-0.796,4.77-5.648,4.77c-0.698,0-1.345-0.027-1.988-0.027
			c-0.615,0-1.221,0.014-1.836,0.027V54.124z M263.832,57.467v0.256h-0.035h-0.104c-0.27,0.006-0.518,0.028-0.518,0.395v3.906
			c0,0.365,0.248,0.387,0.518,0.393h0.139v0.033v0.255h-0.035c-0.358,0-0.806-0.028-1.178-0.028c-0.364,0-0.802,0.028-1.097,0.028
			h-0.031v-0.03V62.45v-0.033h0.031h0.104c0.271-0.006,0.518-0.027,0.521-0.393v-3.906c-0.004-0.366-0.25-0.389-0.521-0.395h-0.136
			v-0.032v-0.257h0.031c0.295,0,0.74,0.029,1.106,0.029c0.371,0,0.817-0.029,1.168-0.029h0.035V57.467z M270.119,57.467v0.256
			h-0.033h-0.11c-0.31,0.01-0.625,0.035-0.633,0.914v3.396c0,0.261,0.007,0.521,0.043,0.746l0.007,0.038h-0.037l-0.309-0.01
			l-3.784-4.22v2.989c0.009,0.65,0.106,0.833,0.668,0.84h0.16v0.033v0.255h-0.032c-0.322,0-0.645-0.028-0.963-0.028
			c-0.335,0-0.678,0.028-1.014,0.028h-0.033v-0.03v-0.258h0.033h0.104c0.494-0.003,0.634-0.318,0.641-0.914v-3.141
			c-0.002-0.396-0.328-0.639-0.647-0.639h-0.13V57.69v-0.254h0.033c0.284,0,0.576,0.027,0.856,0.027
			c0.222,0,0.438-0.027,0.688-0.018l3.279,3.691v-2.744c-0.005-0.594-0.401-0.664-0.618-0.67h-0.196V57.69v-0.254h0.032
			c0.352,0,0.696,0.027,1.044,0.027c0.304,0,0.61-0.027,0.918-0.027h0.033V57.467z M275.507,57.271
			c-0.029,0.2-0.059,0.401-0.079,0.601c-0.016,0.2-0.016,0.4-0.016,0.602v0.023l-0.021,0.009l-0.263,0.095l-0.002-0.043
			c-0.021-0.279-0.05-0.686-0.521-0.686h-1.189v3.938c0.006,0.562,0.229,0.601,0.584,0.607h0.175v0.033v0.255h-0.03
			c-0.295,0-0.815-0.028-1.217-0.028c-0.447,0-0.969,0.028-1.263,0.028h-0.03v-0.03v-0.258h0.03h0.142
			c0.414-0.008,0.578-0.015,0.586-0.593v-3.952h-1.189c-0.552,0.012-0.54,0.103-0.662,0.654l-0.005,0.026h-0.026h-0.262l0.006-0.038
			c0.029-0.21,0.066-0.418,0.09-0.635c0.03-0.207,0.045-0.414,0.045-0.628v-0.032h0.032h0.204l0.005,0.022
			c0.051,0.188,0.189,0.189,0.381,0.192h0.036h3.848c0.208-0.003,0.359-0.006,0.373-0.201l0.002-0.034l0.035,0.007l0.208,0.033
			L275.507,57.271z M279.991,61.495c-0.099,0.394-0.188,0.789-0.253,1.186l-0.006,0.024h-0.026c-0.479,0-1.337-0.029-2.007-0.029
			c-0.671,0-1.558,0.029-1.983,0.029h-0.032v-0.03V62.45v-0.033h0.032h0.104c0.27-0.004,0.516-0.027,0.518-0.393v-3.906
			c-0.002-0.364-0.248-0.389-0.518-0.395h-0.137v-0.032v-0.255h0.032c0.455,0,1.231,0.027,1.854,0.027
			c0.629,0,1.403-0.027,1.91-0.027h0.034l-0.001,0.033c-0.007,0.112-0.009,0.244-0.009,0.385c0,0.258,0.009,0.539,0.023,0.752v0.027
			l-0.024,0.007l-0.262,0.068l-0.003-0.038c-0.044-0.483-0.108-0.836-0.876-0.842h-1.006v1.888h0.856
			c0.43-0.004,0.507-0.224,0.557-0.626l0.003-0.03h0.029h0.257l-0.002,0.034c-0.013,0.291-0.022,0.581-0.022,0.872
			c0,0.282,0.01,0.565,0.022,0.849l0.002,0.027l-0.027,0.005l-0.259,0.054l-0.003-0.037c-0.05-0.456-0.054-0.703-0.549-0.709h-0.864
			v1.705c0.002,0.453,0.394,0.451,0.879,0.453c0.896-0.006,1.259-0.049,1.482-0.887l0.008-0.029l0.031,0.006l0.239,0.061
			L279.991,61.495z M278.768,54.479v-0.355h0.249c0.383,0,0.655,0,0.655-0.454v-3.549c0-0.782-0.478-1.166-1.259-1.166
			c-0.439,0-1.139,0.356-1.593,0.659v4.056c0,0.454,0.304,0.454,0.687,0.454h0.248v0.355c-0.48,0-0.961-0.027-1.454-0.027
			c-0.492,0-0.987,0.014-1.481,0.027v-0.355h0.249c0.382,0,0.657,0,0.657-0.454v-3.633c0-0.507-0.152-0.643-0.794-0.903v-0.262
			c0.588-0.19,1.149-0.369,1.808-0.658c0.041,0,0.081,0.029,0.081,0.138v0.891c0.782-0.561,1.454-1.028,2.374-1.028
			c1.164,0,1.576,0.851,1.576,1.92v3.536c0,0.454,0.301,0.454,0.685,0.454h0.247v0.355c-0.48,0-0.96-0.027-1.453-0.027
			C279.757,54.452,279.263,54.465,278.768,54.479z M285.427,62.45v0.255h-0.031c-0.25,0-0.488-0.028-0.732-0.028
			c-0.227,0-0.466,0.028-0.727,0.017c-0.571-0.75-1.062-1.552-1.543-2.403h-0.443v1.562c0.01,0.561,0.234,0.557,0.58,0.564h0.168
			v0.033v0.255h-0.035c-0.426,0-0.859-0.028-1.283-0.028c-0.354,0-0.705,0.028-1.079,0.028h-0.033v-0.03v-0.258h0.033h0.134
			c0.27-0.002,0.496-0.117,0.498-0.369v-3.79c-0.008-0.528-0.266-0.526-0.498-0.534h-0.167v-0.032v-0.257h0.033
			c0.242,0,0.7,0.029,1.156,0.029c0.446,0,0.802-0.029,1.201-0.029c0.94,0.003,1.806,0.262,1.808,1.347
			c0,0.672-0.445,1.093-1.02,1.327l1.252,1.876c0.207,0.31,0.34,0.388,0.701,0.433l0.027,0.004V62.45z M290.879,58.637v3.396
			c0,0.261,0.007,0.519,0.044,0.747l0.004,0.037h-0.035l-0.309-0.01l-3.785-4.22v2.989c0.01,0.65,0.108,0.833,0.67,0.84h0.159v0.033
			v0.255h-0.033c-0.321,0-0.644-0.029-0.963-0.029c-0.332,0-0.677,0.029-1.011,0.029h-0.036v-0.03v-0.258h0.036h0.102
			c0.492-0.002,0.635-0.318,0.639-0.915v-3.14c0-0.396-0.326-0.639-0.644-0.639h-0.133v-0.032v-0.257h0.036
			c0.283,0,0.575,0.029,0.855,0.029c0.219,0,0.436-0.029,0.685-0.02l3.28,3.693v-2.745c-0.001-0.593-0.4-0.665-0.616-0.669h-0.196
			v-0.032v-0.257h0.031c0.354,0,0.697,0.029,1.046,0.029c0.303,0,0.609-0.029,0.917-0.029h0.033v0.033v0.256h-0.033h-0.111
			C291.205,57.731,290.887,57.758,290.879,58.637z M296.83,62.45v0.258l-0.034-0.003c-0.335-0.013-0.671-0.029-1.025-0.029
			c-0.366,0-0.737,0.017-1.118,0.029l-0.035,0.003v-0.033v-0.26h0.033h0.082c0.172,0,0.429-0.038,0.43-0.18
			c0.001-0.086-0.066-0.291-0.147-0.527l-0.285-0.845h-1.646l-0.23,0.754c-0.076,0.255-0.164,0.451-0.164,0.572
			c0.002,0.183,0.281,0.226,0.528,0.226h0.115v0.035v0.258l-0.034-0.003c-0.299-0.013-0.604-0.029-0.9-0.029
			c-0.268,0-0.537,0.017-0.804,0.029l-0.036,0.003v-0.033v-0.26h0.033h0.046c0.277,0,0.509-0.157,0.616-0.46l1.193-3.424
			c0.1-0.276,0.231-0.647,0.299-0.945c0.232-0.081,0.531-0.229,0.676-0.32c0.022-0.008,0.041-0.018,0.07-0.018
			c0.02-0.001,0.061,0.004,0.083,0.044c0.021,0.061,0.046,0.128,0.067,0.188l1.374,3.902c0.089,0.26,0.178,0.537,0.275,0.756
			c0.085,0.199,0.224,0.277,0.462,0.277h0.076V62.45z M301.431,57.271c-0.031,0.2-0.059,0.401-0.082,0.601
			c-0.015,0.2-0.015,0.401-0.015,0.602v0.023l-0.021,0.009l-0.264,0.095l-0.001-0.043c-0.02-0.279-0.05-0.686-0.521-0.686h-1.189
			v3.938c0.008,0.562,0.229,0.601,0.584,0.607h0.176v0.033v0.255h-0.033c-0.293,0-0.814-0.028-1.215-0.028
			c-0.445,0-0.969,0.028-1.262,0.028h-0.033v-0.03v-0.258h0.033h0.143c0.412-0.008,0.576-0.015,0.586-0.593v-3.952h-1.189
			c-0.553,0.01-0.542,0.103-0.662,0.654l-0.006,0.026h-0.027h-0.261l0.005-0.037c0.031-0.211,0.068-0.419,0.09-0.635
			c0.03-0.208,0.045-0.415,0.045-0.629v-0.032h0.032h0.204l0.004,0.022c0.055,0.188,0.19,0.189,0.382,0.192
			c0.013,0,0.023,0.002,0.036,0.002h3.85c0.206-0.005,0.357-0.008,0.37-0.202l0.001-0.035l0.036,0.007l0.212,0.033L301.431,57.271z
			 M300.072,49.53c0-2.811,2.508-4.825,5.193-4.825c1.11,0,2.182,0.357,3.236,0.728l0.137,1.959h-0.342
			c-0.262-1.604-1.399-2.248-2.934-2.248c-1.578,0-3.866,1.055-3.866,4.346c0,2.77,1.974,4.758,4.084,4.758
			c1.357,0,2.483-0.932,2.759-2.372l0.314,0.081l-0.314,2.002c-0.578,0.357-2.127,0.727-3.032,0.727
			C302.1,54.684,300.072,52.616,300.072,49.53z M303.981,57.467v0.256h-0.031h-0.103c-0.274,0.006-0.52,0.03-0.523,0.395v3.906
			c0.004,0.365,0.249,0.389,0.523,0.393h0.134v0.033v0.255h-0.031c-0.361,0-0.807-0.029-1.179-0.029
			c-0.365,0-0.805,0.029-1.096,0.029h-0.033v-0.03V62.45v-0.033h0.033h0.103c0.271-0.004,0.519-0.027,0.519-0.393v-3.906
			c0-0.364-0.248-0.389-0.519-0.395h-0.136v-0.032v-0.255h0.033c0.291,0,0.739,0.027,1.102,0.027c0.373,0,0.818-0.027,1.173-0.027
			h0.031V57.467z M306.962,62.817c-1.596-0.003-2.819-1.088-2.822-2.709c0.003-1.569,1.217-2.781,2.784-2.785
			c1.602,0.002,2.886,0.998,2.89,2.605C309.812,61.663,308.566,62.814,306.962,62.817z M315.229,58.637v3.396
			c0,0.261,0.006,0.521,0.042,0.747l0.006,0.037h-0.035l-0.31-0.01l-3.786-4.22v2.989c0.01,0.65,0.11,0.832,0.67,0.838h0.161v0.035
			v0.255h-0.033c-0.323,0-0.644-0.028-0.962-0.028c-0.334,0-0.678,0.028-1.016,0.028h-0.031v-0.03v-0.26h0.031h0.105
			c0.492-0.001,0.633-0.316,0.639-0.912v-3.141c0-0.396-0.326-0.639-0.646-0.639h-0.13v-0.032v-0.255h0.031
			c0.287,0,0.576,0.027,0.857,0.027c0.222,0,0.437-0.027,0.69-0.018l3.276,3.691v-2.744c-0.002-0.594-0.398-0.664-0.618-0.67h-0.195
			v-0.032v-0.255h0.033c0.351,0,0.695,0.027,1.042,0.027c0.306,0,0.61-0.027,0.92-0.027h0.031v0.031v0.256h-0.031h-0.111
			C315.552,57.733,315.235,57.759,315.229,58.637z M321.179,62.45v0.258l-0.033-0.003c-0.337-0.013-0.673-0.028-1.029-0.028
			c-0.362,0-0.736,0.016-1.117,0.028l-0.033,0.003v-0.033v-0.258h0.032h0.083c0.174,0,0.43-0.04,0.43-0.182
			c0-0.086-0.066-0.289-0.149-0.527l-0.284-0.845h-1.646l-0.229,0.754c-0.075,0.255-0.164,0.451-0.162,0.571
			c0,0.184,0.277,0.229,0.525,0.229h0.114v0.033v0.258l-0.034-0.003c-0.299-0.013-0.604-0.028-0.9-0.028
			c-0.268,0-0.534,0.016-0.804,0.028l-0.032,0.003v-0.033v-0.258h0.032h0.042c0.279-0.002,0.511-0.16,0.621-0.462l1.193-3.424
			c0.095-0.276,0.229-0.647,0.294-0.945c0.236-0.081,0.535-0.229,0.68-0.32c0.021-0.008,0.04-0.017,0.069-0.017
			c0.021-0.002,0.06,0.003,0.082,0.045c0.023,0.057,0.045,0.126,0.068,0.186l1.373,3.902c0.088,0.26,0.179,0.537,0.275,0.758
			c0.088,0.197,0.223,0.275,0.461,0.277h0.078V62.45z M325.654,61.413c-0.084,0.426-0.186,0.843-0.277,1.268l-0.006,0.024h-0.026
			c-0.657,0-1.312-0.028-1.968-0.028s-1.312,0.028-1.971,0.028h-0.031v-0.03v-0.258h0.031h0.104
			c0.271-0.006,0.524-0.024,0.528-0.467v-3.833c-0.004-0.363-0.258-0.388-0.528-0.394h-0.136v-0.032v-0.255h0.031
			c0.396,0,0.787,0.027,1.18,0.027c0.379,0,0.752-0.027,1.134-0.027h0.031v0.031v0.256h-0.031h-0.187
			c-0.289,0.008-0.469-0.006-0.477,0.371v3.849c0.004,0.277,0.186,0.353,0.419,0.385c0.132,0.009,0.27,0.015,0.413,0.015
			c0.184,0,0.373-0.008,0.565-0.027c0.303-0.037,0.565-0.213,0.694-0.392c0.113-0.157,0.18-0.362,0.225-0.524l0.007-0.025h0.024
			h0.257L325.654,61.413z"/>
		<path fill="#004A97" d="M261.522,57.467v0.224h0.106c0.268,0,0.551,0.038,0.551,0.427v3.906c0,0.389-0.283,0.426-0.551,0.426
			h-0.106v0.225c0.291,0,0.732-0.03,1.097-0.03c0.372,0,0.821,0.03,1.178,0.03V62.45h-0.104c-0.267,0-0.552-0.037-0.552-0.426
			v-3.906c0-0.389,0.285-0.427,0.552-0.427h0.104v-0.224c-0.349,0-0.796,0.029-1.168,0.029
			C262.261,57.497,261.813,57.467,261.522,57.467z M263.765,57.659h-0.072c-0.266,0-0.583,0.046-0.584,0.459v3.906
			c0.001,0.413,0.318,0.458,0.584,0.458h0.072v0.159c-0.352-0.001-0.782-0.029-1.146-0.029c-0.352,0-0.773,0.027-1.062,0.029v-0.159
			h0.07c0.268,0,0.584-0.045,0.584-0.458v-3.906c0-0.413-0.316-0.459-0.584-0.459h-0.07V57.5c0.289,0.001,0.718,0.03,1.072,0.03
			c0.36,0,0.793-0.03,1.137-0.03V57.659z"/>
		<path fill="#004A97" d="M268.124,57.467v0.224h0.164c0.224,0,0.649,0.09,0.649,0.701v2.796l-0.015,0.016l-3.319-3.736
			c-0.225,0-0.439,0.029-0.665,0.029c-0.283,0-0.573-0.029-0.856-0.029v0.224h0.097c0.335,0,0.679,0.254,0.679,0.671v3.141
			c0,0.597-0.156,0.947-0.672,0.947h-0.104v0.225c0.336,0,0.679-0.03,1.014-0.03c0.32,0,0.643,0.03,0.963,0.03V62.45h-0.128
			c-0.575,0-0.7-0.223-0.7-0.873v-3.072l3.842,4.281h0.282c-0.037-0.232-0.045-0.492-0.045-0.753v-3.395
			c0-0.888,0.352-0.947,0.666-0.947h0.11v-0.224c-0.305,0-0.612,0.029-0.918,0.029C268.818,57.497,268.474,57.467,268.124,57.467z
			 M268.906,61.186v0.002l-0.008-0.008L268.906,61.186z M270.053,57.659h-0.078c-0.322,0-0.698,0.086-0.698,0.979v3.396
			c0,0.248,0.006,0.495,0.041,0.72h-0.246l-3.875-4.333v3.157c0.001,0.65,0.146,0.904,0.733,0.906h0.093v0.158
			c-0.307-0.002-0.616-0.029-0.928-0.029c-0.326,0-0.659,0.027-0.982,0.029v-0.16l0.072,0.002c0.537-0.002,0.704-0.384,0.704-0.98
			v-3.141c0-0.437-0.36-0.703-0.711-0.703h-0.065V57.5c0.271,0.001,0.552,0.03,0.825,0.03c0.228,0,0.442-0.03,0.665-0.03
			l3.317,3.751l0.024-0.023l0.016-0.015l0.008-2.819c0-0.633-0.451-0.734-0.681-0.734h-0.13V57.5c0.337,0.001,0.668,0.03,1.01,0.03
			c0.298,0,0.591-0.029,0.886-0.03V57.659z"/>
		<path fill="#004A97" d="M274.896,57.467h-3.85c-0.201,0-0.388,0.008-0.447-0.216h-0.179c0,0.216-0.016,0.423-0.044,0.633
			c-0.023,0.217-0.062,0.425-0.09,0.634h0.223c0.111-0.545,0.134-0.678,0.693-0.678h1.223v3.983c0,0.589-0.205,0.626-0.619,0.626
			h-0.142v0.225c0.292,0,0.814-0.03,1.263-0.03c0.401,0,0.924,0.03,1.215,0.03V62.45H274c-0.356,0-0.617-0.066-0.617-0.641V57.84
			h1.223c0.498,0,0.536,0.441,0.551,0.717l0.225-0.084c0-0.2,0-0.401,0.016-0.604c0.021-0.201,0.051-0.402,0.082-0.604l-0.18-0.03
			C275.283,57.46,275.098,57.467,274.896,57.467z M275.441,57.293c-0.029,0.19-0.058,0.381-0.078,0.572
			c-0.014,0.196-0.015,0.392-0.015,0.586l-0.161,0.059c-0.016-0.276-0.082-0.701-0.582-0.703h-1.256v4.002
			c0,0.585,0.291,0.673,0.65,0.674h0.109v0.157c-0.295-0.001-0.793-0.028-1.182-0.028c-0.434,0-0.935,0.027-1.229,0.028v-0.157
			h0.107c0.41-0.001,0.652-0.061,0.652-0.659v-4.017h-1.256c-0.557-0.008-0.621,0.16-0.72,0.681h-0.157
			c0.025-0.198,0.061-0.395,0.082-0.6c0.027-0.198,0.043-0.398,0.045-0.604h0.123c0.066,0.209,0.258,0.216,0.435,0.216h0.036h3.848
			c0.188,0.003,0.396-0.008,0.432-0.225L275.441,57.293z"/>
		<path fill="#004A97" d="M278.235,62.344c-0.477,0-0.908,0-0.908-0.484v-1.736h0.895c0.515,0,0.537,0.291,0.581,0.736l0.225-0.043
			c-0.016-0.283-0.023-0.566-0.023-0.851c0-0.291,0.008-0.581,0.023-0.874h-0.225c-0.044,0.404-0.141,0.658-0.589,0.658h-0.887
			v-1.953h1.036c0.785,0,0.873,0.387,0.91,0.871l0.223-0.061c-0.021-0.326-0.027-0.821-0.016-1.141c-0.507,0-1.281,0.029-1.91,0.029
			c-0.623,0-1.4-0.029-1.854-0.029v0.224h0.104c0.269,0,0.553,0.038,0.553,0.427v3.906c0,0.389-0.284,0.426-0.553,0.426h-0.104
			v0.225c0.426,0,1.312-0.03,1.983-0.03s1.529,0.03,2.008,0.03c0.065-0.396,0.154-0.791,0.252-1.188l-0.209-0.051
			C279.526,62.286,279.13,62.344,278.235,62.344z M279.919,61.511c-0.091,0.376-0.178,0.753-0.242,1.129
			c-0.481,0-1.319-0.028-1.979-0.028c-0.655,0-1.518,0.028-1.953,0.028v-0.157h0.074c0.266-0.002,0.583-0.046,0.584-0.459v-3.906
			c-0.001-0.413-0.318-0.459-0.584-0.459h-0.074V57.5c0.459,0.001,1.213,0.03,1.824,0.03c0.615,0,1.371-0.029,1.877-0.03
			c-0.004,0.105-0.006,0.228-0.006,0.354c0,0.249,0.008,0.52,0.021,0.729l-0.162,0.042c-0.033-0.469-0.162-0.868-0.938-0.863h-1.068
			v2.02h0.919c0.455,0.004,0.576-0.268,0.618-0.656h0.16c-0.014,0.281-0.021,0.56-0.021,0.841c0,0.274,0.007,0.55,0.021,0.823
			l-0.16,0.034c-0.037-0.425-0.09-0.738-0.61-0.732h-0.927v1.769c0.001,0.518,0.472,0.518,0.941,0.518
			c0.881,0.006,1.312-0.068,1.536-0.903L279.919,61.511z"/>
		<path fill="#004A97" d="M282.344,57.705c-0.226,0-0.327,0.021-0.429,0.028l-0.028,0.004v2.283h0.033h0.364
			c0.752-0.001,1.18-0.304,1.182-1.194C283.465,58.146,283.024,57.705,282.344,57.705z M282.285,59.987h-0.364v-2.222
			c0.104-0.007,0.198-0.028,0.424-0.028c0.665,0,1.089,0.424,1.089,1.088C283.433,59.706,283.032,59.987,282.285,59.987z"/>
		<path fill="#004A97" d="M284.671,62.002l-1.273-1.908c0.59-0.232,1.035-0.644,1.035-1.313c0-1.062-0.836-1.313-1.774-1.313
			c-0.396,0-0.754,0.029-1.201,0.029c-0.457,0-0.917-0.029-1.156-0.029v0.224h0.134c0.231,0,0.53,0.022,0.53,0.566v3.79
			c0,0.275-0.253,0.402-0.53,0.402h-0.134v0.225c0.373,0,0.722-0.03,1.081-0.03c0.426,0,0.857,0.03,1.283,0.03V62.45h-0.135
			c-0.343,0-0.61-0.021-0.61-0.596v-1.598h0.491c0.484,0.859,0.979,1.664,1.553,2.418c0.229,0,0.469-0.03,0.699-0.03
			c0.246,0,0.485,0.03,0.732,0.03V62.45C285.029,62.405,284.882,62.317,284.671,62.002z M285.363,62.64
			c-0.23-0.003-0.461-0.028-0.699-0.028c-0.232,0-0.473,0.029-0.699,0.029c-0.551-0.738-1.04-1.543-1.526-2.4l-0.008-0.018h-0.51
			h-0.033v1.629c0,0.59,0.303,0.63,0.644,0.631h0.103v0.157c-0.413,0-0.833-0.028-1.253-0.028c-0.349,0-0.688,0.028-1.047,0.028
			v-0.157h0.102c0.281-0.001,0.562-0.137,0.562-0.436v-3.79c0-0.561-0.329-0.599-0.562-0.599h-0.102V57.5
			c0.243,0.001,0.686,0.03,1.124,0.03c0.449,0,0.808-0.03,1.201-0.03c0.937,0.005,1.742,0.245,1.742,1.281
			c0,0.653-0.434,1.052-1.017,1.281l-0.037,0.017l1.298,1.941c0.206,0.309,0.368,0.414,0.718,0.457V62.64z"/>
		<path fill="#004A97" d="M291.625,57.467c-0.31,0-0.612,0.029-0.919,0.029c-0.351,0-0.694-0.029-1.044-0.029v0.224h0.163
			c0.224,0,0.649,0.09,0.649,0.701v2.796l-0.014,0.016l-3.32-3.736c-0.224,0-0.442,0.029-0.665,0.029
			c-0.281,0-0.573-0.029-0.854-0.029v0.224h0.097c0.333,0,0.679,0.254,0.679,0.671v3.141c0,0.597-0.158,0.947-0.674,0.947h-0.102
			v0.225c0.334,0,0.677-0.03,1.014-0.03c0.32,0,0.641,0.03,0.961,0.03V62.45h-0.127c-0.574,0-0.7-0.223-0.7-0.873v-3.072l3.84,4.281
			h0.284c-0.036-0.232-0.046-0.492-0.046-0.753v-3.395c0-0.888,0.354-0.947,0.665-0.947h0.113V57.467z M291.589,57.659h-0.078
			c-0.319,0.002-0.697,0.086-0.697,0.979v3.396c0,0.248,0.006,0.497,0.039,0.72h-0.245l-3.876-4.332v3.156
			c0.003,0.65,0.149,0.905,0.736,0.906h0.096v0.157c-0.309-0.001-0.619-0.028-0.933-0.028c-0.327,0-0.659,0.027-0.983,0.028v-0.158
			l0.074,0.001c0.534-0.002,0.703-0.383,0.703-0.981v-3.14c0-0.437-0.359-0.701-0.708-0.703h-0.069V57.5
			c0.273,0.001,0.551,0.03,0.828,0.03c0.227,0,0.443-0.03,0.664-0.03l3.318,3.751l0.023-0.023l0.014-0.015l0.012-2.82
			c0-0.632-0.453-0.731-0.683-0.733h-0.131V57.5c0.336,0.001,0.669,0.03,1.012,0.03c0.297,0,0.591-0.029,0.884-0.03V57.659z"/>
		<path fill="#004A97" d="M293.934,58.27h-0.022h-0.016h-0.025l-0.713,2.176h1.484L293.934,58.27z M293.896,58.302h0.016
			l0.685,2.112h-1.393L293.896,58.302z"/>
		<path fill="#004A97" d="M296.259,62.153c-0.096-0.227-0.185-0.5-0.274-0.762l-1.372-3.901c-0.022-0.06-0.045-0.128-0.067-0.186
			c-0.016-0.023-0.03-0.023-0.054-0.023c-0.021,0-0.035,0.009-0.059,0.015c-0.14,0.09-0.439,0.238-0.678,0.32
			c-0.045,0.277-0.18,0.649-0.278,0.926l-1.192,3.422c-0.112,0.314-0.357,0.486-0.647,0.486h-0.046v0.225
			c0.27-0.018,0.537-0.03,0.805-0.03c0.301,0,0.605,0.013,0.904,0.03V62.45h-0.083c-0.245,0-0.56-0.037-0.56-0.262
			c0-0.133,0.09-0.328,0.167-0.582l-0.033-0.009c-0.073,0.253-0.165,0.443-0.166,0.592c0.009,0.263,0.349,0.29,0.592,0.293h0.048
			v0.157c-0.283-0.014-0.578-0.027-0.867-0.027c-0.26,0-0.518,0.014-0.773,0.027v-0.157h0.013c0.304,0.001,0.564-0.181,0.678-0.506
			l1.193-3.424c0.097-0.277,0.231-0.649,0.278-0.931c0.221-0.059,0.52-0.205,0.663-0.299c0.019-0.006,0.028-0.01,0.042-0.01h0.016
			c0.008,0,0.004,0,0.011,0.007c0.019,0.054,0.04,0.121,0.063,0.18l1.373,3.901c0.088,0.262,0.179,0.537,0.275,0.764
			c0.093,0.221,0.269,0.32,0.523,0.317h0.011v0.157c-0.325-0.014-0.647-0.027-0.994-0.027c-0.356,0-0.72,0.014-1.087,0.027v-0.157
			h0.049c0.168-0.004,0.484-0.019,0.494-0.247c0-0.111-0.068-0.31-0.15-0.549l-0.299-0.887h-1.741l-0.244,0.797l0.033,0.01
			l0.236-0.775h1.694l0.288,0.865c0.085,0.239,0.151,0.441,0.151,0.539c0,0.186-0.293,0.215-0.462,0.215h-0.083v0.225
			c0.38-0.018,0.754-0.03,1.12-0.03c0.356,0,0.692,0.013,1.027,0.03V62.45h-0.044C296.507,62.45,296.351,62.362,296.259,62.153z"/>
		<path fill="#004A97" d="M300.818,57.467h-3.85c-0.199,0-0.388,0.008-0.447-0.216h-0.179c0,0.216-0.015,0.423-0.044,0.633
			c-0.021,0.217-0.061,0.425-0.091,0.634h0.224c0.113-0.545,0.137-0.678,0.695-0.678h1.223v3.983c0,0.589-0.207,0.626-0.619,0.626
			h-0.143v0.225c0.291,0,0.815-0.03,1.262-0.03c0.402,0,0.924,0.03,1.215,0.03V62.45h-0.141c-0.357,0-0.618-0.066-0.618-0.641V57.84
			h1.222c0.501,0,0.537,0.441,0.552,0.717l0.224-0.084c0-0.2,0-0.401,0.016-0.604c0.022-0.201,0.053-0.402,0.082-0.604l-0.179-0.03
			C301.206,57.46,301.019,57.467,300.818,57.467z M301.362,57.293c-0.027,0.19-0.056,0.381-0.075,0.573
			c-0.016,0.195-0.016,0.391-0.016,0.585l-0.162,0.059c-0.016-0.276-0.08-0.701-0.582-0.703h-1.256v4.002
			c0.002,0.586,0.292,0.672,0.65,0.673h0.11v0.159c-0.294-0.002-0.794-0.029-1.183-0.029c-0.434,0-0.935,0.027-1.229,0.029v-0.159
			h0.11c0.409-0.001,0.652-0.06,0.652-0.658v-4.017h-1.256c-0.557-0.008-0.623,0.16-0.721,0.681h-0.16
			c0.029-0.196,0.064-0.394,0.084-0.6c0.03-0.198,0.045-0.398,0.045-0.605h0.123c0.068,0.21,0.259,0.218,0.435,0.217h0.036h3.85
			c0.187,0.003,0.397-0.008,0.43-0.225L301.362,57.293z"/>
		<path fill="#004A97" d="M301.675,57.467v0.224h0.103c0.271,0,0.552,0.038,0.552,0.427v3.906c0,0.389-0.281,0.426-0.552,0.426
			h-0.103v0.225c0.29,0,0.73-0.03,1.096-0.03c0.373,0,0.82,0.03,1.179,0.03V62.45h-0.103c-0.271,0-0.555-0.037-0.555-0.426v-3.906
			c0-0.389,0.284-0.427,0.555-0.427h0.103v-0.224c-0.351,0-0.798,0.029-1.173,0.029C302.413,57.497,301.965,57.467,301.675,57.467z
			 M303.916,57.659h-0.068c-0.268,0-0.586,0.046-0.586,0.459v3.906c0,0.413,0.318,0.458,0.586,0.458h0.068v0.158
			c-0.352-0.001-0.782-0.028-1.145-0.028c-0.355,0-0.775,0.025-1.064,0.028v-0.158h0.071c0.267,0,0.585-0.045,0.585-0.458v-3.906
			c0-0.413-0.318-0.459-0.585-0.459h-0.071V57.5c0.289,0.001,0.717,0.03,1.07,0.03c0.364,0,0.796-0.029,1.139-0.03V57.659z"/>
		<path fill="#004A97" d="M306.924,57.356c-1.55,0-2.752,1.201-2.752,2.752c0,1.604,1.21,2.678,2.792,2.678
			c1.587,0,2.817-1.14,2.817-2.855C309.782,58.341,308.515,57.356,306.924,57.356z M306.962,62.752
			c-1.566-0.001-2.758-1.059-2.76-2.645c0-1.535,1.189-2.72,2.722-2.72c1.577,0.001,2.825,0.972,2.826,2.54
			C309.749,61.626,308.535,62.751,306.962,62.752z"/>
		<path fill="#004A97" d="M306.91,57.651c-1.332,0-1.724,1.19-1.727,2.195c0.003,1.342,0.616,2.64,1.855,2.642
			c1.473,0,1.729-1.307,1.73-2.394C308.767,58.998,308.177,57.655,306.91,57.651z M307.039,62.458c-1.211,0-1.822-1.276-1.822-2.611
			c0-0.999,0.388-2.162,1.693-2.162c1.24,0,1.826,1.319,1.826,2.41C308.736,61.181,308.486,62.458,307.039,62.458z"/>
		<path fill="#004A97" d="M315.972,57.467c-0.307,0-0.612,0.029-0.919,0.029c-0.349,0-0.692-0.029-1.042-0.029v0.224h0.161
			c0.226,0,0.651,0.09,0.651,0.701v2.796l-0.018,0.016l-3.318-3.736c-0.224,0-0.439,0.029-0.664,0.029
			c-0.283,0-0.574-0.029-0.857-0.029v0.224h0.099c0.335,0,0.679,0.254,0.679,0.671v3.141c0,0.597-0.155,0.947-0.672,0.947h-0.105
			v0.225c0.336,0,0.68-0.03,1.016-0.03c0.32,0,0.641,0.03,0.962,0.03V62.45h-0.127c-0.574,0-0.7-0.223-0.7-0.873v-3.072l3.842,4.281
			h0.283c-0.039-0.232-0.046-0.492-0.046-0.753v-3.395c0-0.888,0.351-0.947,0.665-0.947h0.111V57.467z M315.94,57.659h-0.079
			c-0.32,0.002-0.697,0.082-0.697,0.979v3.396c0,0.248,0.007,0.495,0.038,0.72h-0.243l-3.875-4.333v3.157
			c0,0.65,0.146,0.905,0.732,0.906h0.096v0.157c-0.309-0.001-0.617-0.028-0.93-0.028c-0.327,0-0.659,0.027-0.984,0.028v-0.158
			l0.074,0.001c0.536-0.002,0.703-0.384,0.703-0.98v-3.141c0-0.437-0.361-0.701-0.71-0.703h-0.067V57.5
			c0.271,0.001,0.553,0.03,0.826,0.03c0.227,0,0.445-0.03,0.664-0.03l3.318,3.751l0.025-0.023l0.016-0.015l0.007-2.819
			c0-0.631-0.45-0.732-0.682-0.734h-0.129V57.5c0.337,0.001,0.669,0.03,1.009,0.03c0.299,0,0.593-0.029,0.888-0.03V57.659z"/>
		<path fill="#004A97" d="M320.611,62.153c-0.098-0.227-0.188-0.5-0.278-0.762l-1.37-3.901c-0.021-0.06-0.046-0.128-0.068-0.186
			c-0.015-0.023-0.03-0.023-0.051-0.023c-0.023,0-0.039,0.009-0.061,0.015c-0.143,0.09-0.439,0.238-0.681,0.32
			c-0.042,0.277-0.177,0.649-0.274,0.926l-1.194,3.422c-0.109,0.314-0.357,0.486-0.649,0.486h-0.042v0.225
			c0.267-0.018,0.535-0.03,0.804-0.03c0.299,0,0.604,0.013,0.904,0.03V62.45h-0.083c-0.245,0-0.56-0.037-0.56-0.262
			c0-0.133,0.09-0.328,0.164-0.582l-0.031-0.009c-0.073,0.254-0.164,0.443-0.167,0.591c0.011,0.266,0.351,0.291,0.593,0.294h0.049
			v0.157c-0.285-0.014-0.58-0.027-0.869-0.027c-0.259,0-0.515,0.014-0.772,0.027v-0.157h0.011c0.305,0.001,0.566-0.181,0.681-0.506
			l1.193-3.424c0.097-0.277,0.231-0.649,0.277-0.931c0.222-0.058,0.521-0.207,0.665-0.299c0.018-0.006,0.025-0.01,0.041-0.01h0.016
			c0.005,0,0.004,0,0.012,0.009c0.017,0.052,0.041,0.119,0.062,0.178l1.373,3.901c0.089,0.262,0.177,0.537,0.275,0.764
			c0.094,0.221,0.27,0.318,0.521,0.317h0.012l0.001,0.157c-0.325-0.014-0.649-0.027-0.997-0.027c-0.354,0-0.717,0.014-1.087,0.028
			v-0.158h0.052c0.168-0.004,0.48-0.019,0.492-0.247c0-0.111-0.066-0.31-0.15-0.549l-0.297-0.887h-1.74l-0.246,0.797l0.031,0.01
			l0.238-0.775h1.693l0.289,0.865c0.085,0.239,0.152,0.441,0.152,0.539c0,0.186-0.293,0.215-0.463,0.215h-0.083v0.225
			c0.38-0.018,0.753-0.03,1.118-0.03c0.359,0,0.695,0.013,1.031,0.03V62.45h-0.046C320.857,62.45,320.699,62.362,320.611,62.153z"/>
		<path fill="#004A97" d="M318.285,58.27h-0.024h-0.016h-0.022l-0.716,2.176h1.482L318.285,58.27z M318.246,58.302h0.015
			l0.687,2.112h-1.396L318.246,58.302z"/>
		<path fill="#004A97" d="M324.458,62.344c-0.344,0.039-0.68,0.039-0.985,0.018c-0.239-0.031-0.446-0.119-0.446-0.419v-3.849
			c0-0.396,0.223-0.403,0.506-0.403h0.187v-0.224c-0.38,0-0.753,0.029-1.134,0.029c-0.395,0-0.783-0.029-1.178-0.029v0.224h0.103
			c0.269,0,0.562,0.038,0.562,0.427v3.832c0,0.463-0.293,0.5-0.562,0.5h-0.103v0.225c0.656,0,1.312-0.03,1.969-0.03
			c0.656,0,1.314,0.03,1.968,0.03c0.091-0.425,0.196-0.844,0.276-1.27h-0.216c-0.045,0.165-0.112,0.373-0.231,0.538
			C325.04,62.129,324.772,62.307,324.458,62.344z M325.429,61.438h0.152c-0.079,0.402-0.178,0.799-0.264,1.202
			c-0.646,0-1.292-0.028-1.941-0.028c-0.648,0-1.293,0.028-1.938,0.028v-0.158h0.071c0.269,0,0.593-0.05,0.593-0.532v-3.833
			c0-0.412-0.326-0.458-0.593-0.458h-0.071V57.5c0.383,0.001,0.76,0.03,1.146,0.03c0.371,0,0.734-0.029,1.1-0.03v0.159h-0.152
			c-0.277,0-0.541,0.02-0.541,0.436v3.849c-0.001,0.319,0.234,0.423,0.479,0.449c0.134,0.01,0.274,0.017,0.418,0.017
			c0.185,0,0.375-0.012,0.571-0.031c0.325-0.04,0.602-0.223,0.739-0.414C325.316,61.8,325.382,61.6,325.429,61.438z"/>
	</g>
</g>
<g>
	<path fill="#827F7F" d="M410.502,46.572h-3.602v2.818h3.591c1.179,0,1.598-0.682,1.598-1.469
		C412.089,47.345,411.708,46.572,410.502,46.572z"/>
	<path fill="#827F7F" d="M411.6,26.291h-3.604v2.66h3.59c1.18,0,1.598-0.523,1.598-1.311
		C413.184,27.064,412.805,26.291,411.6,26.291z"/>
	<polygon fill="#827F7F" points="367.025,30.359 370.535,30.359 368.744,26.255 	"/>
	<polygon fill="#827F7F" points="386.33,46.554 386.33,48.757 392.685,48.757 392.685,50.984 386.33,50.984 386.33,53.302 
		392.972,53.302 396.145,49.765 393.339,46.57 	"/>
	<polygon fill="#827F7F" points="434.217,26.261 432.5,30.365 436.026,30.365 	"/>
	<polygon fill="#827F7F" points="403.993,54.666 403.993,45.179 399.852,49.765 	"/>
	<path fill="#827F7F" d="M459.571,10.58h-97.069c-2.308,0-4.182,1.871-4.182,4.18v50.033c0,2.309,1.874,4.18,4.182,4.18h97.069
		c2.309,0,4.182-1.871,4.182-4.18V14.759C463.752,12.451,461.879,10.58,459.571,10.58z M426.174,23.767h3.764v2.551h-1.78
		c-1.915,0-3.41,0.201-3.41,2.953v0.852c0.014,2.07,1.099,2.561,1.795,2.703c0.169,0.041,1.847,0.041,1.847,0.041l3.971-9.094h3.814
		l4.912,11.02V23.767h4.26l4.859,8.129v-8.129h2.881v11.752h-3.93l-5.189-8.598v8.598h-5.686l-1.14-2.621h-5.753l-1.127,2.621
		h-3.801c-3.195,0-4.611-2.68-4.545-5.93C422.012,24.767,424.864,23.767,426.174,23.767z M417.579,23.759h2.883v11.754h-2.883
		V23.759z M393.982,23.773h9.42V26.3h-6.536v2.203h6.354v2.227h-6.354v2.318h6.536v2.465h-9.42V23.773z M378.634,26.798v8.715
		h-5.805l-1.141-2.621h-5.754l-1.125,2.621h-3.041l5.137-11.74h3.814l5.031,11.307V23.773h4.521l3.525,7.875l3.537-7.875h4.599
		v11.74h-2.883v-8.57l-3.943,8.57h-2.621L378.634,26.798z M410.727,51.808h-3.877v3.986h-5.53l-3.381-3.906l-3.458,3.879h-10.995
		v-11.74h11.361l3.196,3.668l3.302-3.643h10.116c1.416,0,3.486,0.654,3.486,3.59C414.948,51.757,412.222,51.808,410.727,51.808z
		 M415.963,33.101l0.105,2.412h-2.804l-0.081-2.15c-0.025-0.996-0.418-1.99-1.415-1.99h-3.772v4.141h-2.883v-11.74h7.494
		c1.417,0,3.461,0.627,3.461,3.143c0,1.416-0.419,2.467-1.992,3.25C415.44,30.324,415.963,31.214,415.963,33.101z M427.272,53.382
		l0.105,2.412h-2.805l-0.079-2.15c-0.025-0.996-0.419-1.992-1.413-1.992h-3.774v4.143h-2.882v-11.74h7.492
		c1.417,0,3.461,0.629,3.461,3.143c0,1.416-0.42,2.465-1.993,3.25C426.749,50.603,427.272,51.494,427.272,53.382z M438.286,46.554
		h-6.539v2.203h6.355v2.227h-6.355v2.318h6.539v2.465h-9.424v-11.74h9.424V46.554z M445.782,55.82h-6.055v-2.518h4.719
		c0.799,0,1.992,0,1.992-1.127c0-0.535-0.211-0.877-1.062-0.967c-0.38-0.055-1.781-0.133-1.992-0.137
		c-3.199-0.084-3.943-1.676-3.943-3.613c0-2.201,1.546-3.404,3.434-3.404h6.053v2.516h-4.428c-1.01,0.01-2.098-0.119-2.098,1.02
		c0,0.721,0.537,0.865,1.22,0.932c0.235,0,1.809,0.082,2.017,0.08c3.543,0.182,3.84,1.951,3.84,3.838
		C449.477,54.638,447.668,55.82,445.782,55.82z M456.633,55.82h-6.055v-2.518h4.717c0.801,0,1.992,0,1.992-1.127
		c0-0.535-0.209-0.877-1.062-0.967c-0.377-0.055-1.779-0.133-1.99-0.137c-3.201-0.084-3.945-1.676-3.945-3.613
		c0-2.201,1.547-3.404,3.436-3.404h6.055v2.516h-4.432c-1.008,0.01-2.096-0.119-2.096,1.02c0,0.721,0.535,0.865,1.219,0.932
		c0.236,0,1.807,0.082,2.018,0.08c3.543,0.182,3.838,1.951,3.838,3.838C460.327,54.638,458.518,55.82,456.633,55.82z"/>
	<path fill="#827F7F" d="M422.909,46.572h-3.603v2.66h3.589c1.18,0,1.599-0.525,1.599-1.311
		C424.494,47.345,424.114,46.572,422.909,46.572z"/>
</g>
<g>
	<path fill="#827F7F" d="M676.688,35.906h-0.704v3.557h0.667c1.465,0,2.24-0.635,2.24-1.814
		C678.891,36.507,678.116,35.906,676.688,35.906z"/>
	<path fill="#827F7F" d="M682.431,34.808h-0.049v0.268h0.046c0.121,0,0.186-0.047,0.186-0.137
		C682.614,34.851,682.552,34.808,682.431,34.808z"/>
	<path fill="#827F7F" d="M611.582,36.048h-0.615v7.762h0.615c1.48,0,2.412-0.281,3.136-0.934c0.792-0.701,1.263-1.83,1.263-2.959
		c0-1.125-0.471-2.215-1.263-2.92C613.958,36.312,613.062,36.048,611.582,36.048z"/>
	<path fill="#827F7F" d="M694.579,10.75h-97.069c-2.307,0-4.181,1.871-4.181,4.182v50.031c0,2.309,1.874,4.182,4.181,4.182h97.069
		c2.308,0,4.181-1.873,4.181-4.182V14.931C698.759,12.621,696.886,10.75,694.579,10.75z M616.211,44.445
		c-1.128,0.932-2.411,1.354-4.187,1.354h-3.349V34.06h3.364c3.711,0,6.301,2.41,6.301,5.875
		C618.341,41.662,617.547,43.333,616.211,44.445z M621.685,45.798h-2.287V34.06h2.287V45.798z M626.615,46.082
		c-1.744,0-3.012-0.688-4.065-2.234l1.477-1.428c0.528,1.021,1.407,1.564,2.498,1.564c1.022,0,1.78-0.701,1.78-1.654
		c0-0.492-0.23-0.912-0.688-1.213c-0.229-0.143-0.687-0.354-1.584-0.67c-2.147-0.773-2.887-1.6-2.887-3.221
		c0-1.918,1.585-3.361,3.66-3.361c1.285,0,2.465,0.439,3.45,1.305l-1.195,1.562c-0.6-0.666-1.163-0.947-1.849-0.947
		c-0.989,0-1.707,0.562-1.707,1.301c0,0.633,0.403,0.969,1.778,1.477c2.605,0.953,3.378,1.799,3.378,3.664
		C630.662,44.496,628.99,46.082,626.615,46.082z M640.449,37.208c-0.952-0.932-1.781-1.32-2.87-1.32
		c-2.149,0-3.838,1.779-3.838,4.029c0,2.377,1.638,4.049,3.942,4.049c1.039,0,1.849-0.367,2.766-1.283v2.693
		c-1.039,0.492-1.883,0.686-2.87,0.686c-3.484,0-6.196-2.674-6.196-6.127c0-3.41,2.781-6.139,6.25-6.139
		c0.984,0,1.814,0.209,2.816,0.719V37.208z M647.576,46.062c-3.578,0-6.259-2.646-6.259-6.189c0-3.332,2.803-6.031,6.259-6.031
		c3.506,0,6.243,2.684,6.243,6.1C653.819,43.38,651.064,46.062,647.576,46.062z M659.58,46.099h-1.231l-4.982-12.039h2.499
		l3.134,7.885l3.17-7.885h2.481L659.58,46.099z M672.183,36.048h-4.206v2.605h4.046v1.986h-4.046v3.17h4.206v1.988h-6.494V34.06
		h6.494V36.048z M679.451,45.798l-3.166-4.717h-0.301v4.717h-2.289V34.06h3.397c2.641,0,4.153,1.266,4.153,3.465
		c0,1.797-0.949,2.977-2.677,3.328l3.698,4.945H679.451z M682.519,36.035c-0.499,0-0.9-0.402-0.9-0.902
		c0-0.502,0.399-0.904,0.9-0.904c0.491,0,0.893,0.408,0.893,0.904S683.01,36.035,682.519,36.035z"/>
	<path fill="#827F7F" d="M682.518,34.392c-0.401,0-0.723,0.328-0.723,0.742c0,0.41,0.323,0.738,0.723,0.738
		c0.391,0,0.711-0.332,0.711-0.738C683.229,34.726,682.909,34.392,682.518,34.392z M682.671,35.652l-0.289-0.402v0.402h-0.245
		v-1.035h0.334c0.252,0,0.39,0.113,0.39,0.318c0,0.145-0.081,0.25-0.228,0.289l0.346,0.428H682.671z"/>
</g>
<g>
	<path fill="#827F7F" d="M506.39,42.086c1.217,1.6,2.894,2.816,4.949,2.893c2.513,0.23,5.787,0.457,7.461-1.902
		c1.144-1.219,0.459-2.892,0.688-4.492l-0.076-2.895c-1.447-0.305-2.742,0-4.418-0.076c-0.837,3.123,1.371,6.625-2.207,8.224
		c-0.839,0.229-2.057,0.076-2.895-0.457c-1.369-0.305-0.608-2.513-2.436-1.904l-1.066-0.15V42.086z"/>
	<path fill="#827F7F" d="M576.951,10.915h-97.068c-2.309,0-4.18,1.871-4.18,4.182v50.031c0,2.309,1.871,4.182,4.18,4.182h97.068
		c2.309,0,4.181-1.873,4.181-4.182V15.097C581.131,12.786,579.259,10.915,576.951,10.915z M516.516,61.657
		c-2.892,1.445-6.776,0.533-10.051,0.838l-0.075-0.533V42.086v-0.759V23.05c0.381-2.057,2.056-3.959,4.035-4.721
		c2.97-0.914,6.397-0.379,9.441-0.459c0.152,2.973,0,6.703,0.077,9.293l0.153,23.832C519.714,54.651,521.086,59.6,516.516,61.657z
		 M531.367,61.809c-2.895,0.988-6.474,0.533-9.671,0.533l-0.153-39.064c0.153-1.828,1.371-3.426,2.97-4.416
		c1.143-0.762,2.514-0.992,3.96-1.066h6.473l0.151,2.59l0.077,37.083C534.641,59.219,533.269,61.124,531.367,61.809z
		 M550.327,56.708c-0.152,1.826-1.294,3.578-2.97,4.645c-1.295,0.838-2.895,0.914-4.569,0.99l-6.054-0.076l-0.038-38.759
		c0.306-2.59,2.209-4.797,4.646-5.482c2.969-0.381,5.712-0.229,8.833-0.305l0.152,1.98v22.005l-0.077,0.076v0.99
		C550.403,47.34,550.555,52.061,550.327,56.708z"/>
	<path fill="#827F7F" d="M534.488,35.69c0.153,0.457,0,0.838,0.076,1.371c-2.284-0.609-5.102-1.295-7.158,0.381
		c-0.76,0.912-1.219,1.828-1.142,3.045c0.229,1.371,1.066,2.666,2.36,3.199c1.98,0.609,4.035,0.076,5.863-0.383
		c0.076,0.383,0.153,0.914,0,1.219h-8.758c-1.521-0.305-2.74-1.141-3.425-2.664c-0.609-1.447-0.305-3.425,0.761-4.644
		c0.914-1.066,2.209-1.676,3.654-1.6L534.488,35.69z"/>
	<path fill="#827F7F" d="M550.25,42.772c-0.228,0.914-0.988,1.75-1.903,1.902h-10.661l-0.379-0.152c0-3.044-0.078-5.937,0.076-8.908
		h6.775c2.132,0.229,4.493-0.686,5.484,1.295c0.303,0.686,0.228,1.6-0.307,2.133c-0.303,0.531-0.989,0.609-1.142,0.988
		c0.839,0.229,1.751,0.914,2.056,1.751V42.772z M541.112,36.528c-0.228,0.836-0.228,1.98-0.075,2.893
		c1.6-0.074,3.655,0.533,4.721-0.684c0.382-0.459,0.152-1.219-0.077-1.602C544.462,36.071,542.636,36.757,541.112,36.528z
		 M545.226,40.716c-1.447-0.229-2.896-0.152-4.266-0.076c-0.076,1.142,0,2.056,0.151,3.123c1.524,0,3.198,0.227,4.568-0.459
		c0.382-0.379,0.609-0.988,0.459-1.521C546.062,41.327,545.68,40.944,545.226,40.716z"/>
</g>
<g>
	<path fill-rule="evenodd" clip-rule="evenodd" fill="#827F7F" d="M174.324,24.239l-1.031,1.223h5.192
		c-0.339-0.421-0.692-0.828-1.061-1.223H174.324z"/>
	<path fill-rule="evenodd" clip-rule="evenodd" fill="#827F7F" d="M172.221,26.956l-0.722,1.223h8.863
		c-0.244-0.415-0.497-0.825-0.767-1.223H172.221z"/>
	<path fill-rule="evenodd" clip-rule="evenodd" fill="#827F7F" d="M170.696,29.666l-0.531,1.223h11.558
		c-0.173-0.414-0.359-0.821-0.556-1.223H170.696z"/>
	<path fill-rule="evenodd" clip-rule="evenodd" fill="#827F7F" d="M169.625,32.384l-0.379,1.222h13.408
		c-0.112-0.412-0.237-0.819-0.373-1.222H169.625z"/>
	<path fill-rule="evenodd" clip-rule="evenodd" fill="#827F7F" d="M169.397,45.516l0.38,1.223h12.491
		c0.136-0.402,0.262-0.81,0.375-1.223H169.397z"/>
	<path fill-rule="evenodd" clip-rule="evenodd" fill="#827F7F" d="M170.353,48.233l0.57,1.223h10.225
		c0.198-0.401,0.386-0.809,0.561-1.223H170.353z"/>
	<path fill-rule="evenodd" clip-rule="evenodd" fill="#827F7F" d="M171.766,50.944l0.765,1.222h7.04
		c0.271-0.397,0.525-0.807,0.771-1.222H171.766z"/>
	<path fill-rule="evenodd" clip-rule="evenodd" fill="#827F7F" d="M173.679,53.653l1.07,1.23h2.641
		c0.372-0.397,0.729-0.807,1.072-1.23H173.679z"/>
	<path fill-rule="evenodd" clip-rule="evenodd" fill="#827F7F" d="M168.942,35.093l-0.235,1.223h14.512
		c-0.06-0.411-0.127-0.819-0.208-1.223H168.942z"/>
	<path fill-rule="evenodd" clip-rule="evenodd" fill="#827F7F" d="M168.422,38.816c0.002-0.058,0.003-0.114,0.005-0.172
		l-0.033,0.172H168.422z"/>
	<path fill-rule="evenodd" clip-rule="evenodd" fill="#827F7F" d="M168.629,37.593l-0.202,1.051
		c-0.002,0.058-0.003,0.114-0.005,0.172h15.012c-0.013-0.41-0.036-0.818-0.071-1.223H168.629z"/>
	<path fill-rule="evenodd" clip-rule="evenodd" fill="#827F7F" d="M168.69,42.828c0.064,0.412,0.143,0.818,0.23,1.223H183
		c0.083-0.403,0.151-0.812,0.212-1.223H168.69z"/>
	<path fill-rule="evenodd" clip-rule="evenodd" fill="#827F7F" d="M168.431,40.093c0.015,0.41,0.038,0.818,0.075,1.223h14.87
		c0.032-0.404,0.052-0.812,0.062-1.223H168.431z"/>
	<path fill-rule="evenodd" clip-rule="evenodd" fill="#827F7F" d="M224.71,10.386h-97.068c-2.309,0-4.182,1.871-4.182,4.182v50.031
		c0,2.31,1.873,4.18,4.182,4.18h97.068c2.308,0,4.181-1.87,4.181-4.18V14.568C228.891,12.257,227.018,10.386,224.71,10.386z
		 M191.244,62.001c-5.894,0-11.254-2.273-15.261-5.987c-3.976,3.566-9.229,5.737-14.989,5.737
		c-12.402,0-22.458-10.055-22.458-22.459c0-12.403,10.056-22.458,22.458-22.458c5.895,0,11.255,2.273,15.262,5.987
		c3.976-3.566,9.228-5.737,14.988-5.737c12.404,0,22.459,10.055,22.459,22.458C213.703,51.947,203.648,62.001,191.244,62.001z"/>
	<g>
		<g>
			<polygon fill-rule="evenodd" clip-rule="evenodd" fill="#827F7F" points="165.431,38.172 165.326,38.165 165.219,38.15 
				165.121,38.135 165.023,38.12 164.93,38.105 164.833,38.089 164.735,38.075 164.627,38.059 164.522,38.044 164.4,38.036 
				164.263,38.028 164.12,38.02 163.959,38.02 163.786,38.028 163.587,38.044 163.368,38.059 163.216,38.083 163.072,38.105 
				162.942,38.15 162.829,38.195 162.721,38.249 162.625,38.309 162.547,38.386 162.478,38.454 162.434,38.538 162.396,38.621 
				162.38,38.711 162.38,38.803 162.403,38.902 162.434,39 162.494,39.099 162.571,39.198 162.721,39.341 162.905,39.456 
				163.117,39.553 163.344,39.637 163.587,39.713 163.837,39.797 164.088,39.889 164.331,39.987 164.559,40.116 164.772,40.275 
				164.961,40.465 165.121,40.701 165.243,40.989 165.319,41.331 165.348,41.741 165.319,42.219 165.266,42.576 165.174,42.887 
				165.052,43.175 164.901,43.425 164.727,43.647 164.528,43.835 164.316,44.002 164.083,44.147 163.837,44.26 163.587,44.359 
				163.329,44.435 163.064,44.496 162.805,44.542 162.556,44.565 162.305,44.581 162.07,44.586 161.742,44.586 161.439,44.581 
				161.173,44.581 160.923,44.573 160.696,44.565 160.491,44.549 160.309,44.534 160.134,44.511 159.974,44.496 159.831,44.465 
				159.686,44.442 159.557,44.405 159.427,44.375 159.307,44.329 159.184,44.284 159.055,44.238 159.397,42.561 159.465,42.576 
				159.548,42.598 159.655,42.627 159.786,42.66 159.92,42.69 160.073,42.719 160.241,42.757 160.421,42.788 160.612,42.818 
				160.809,42.848 161.014,42.872 161.227,42.894 161.446,42.901 161.668,42.909 161.886,42.909 162.107,42.901 162.328,42.856 
				162.502,42.795 162.638,42.712 162.745,42.606 162.821,42.5 162.881,42.377 162.92,42.256 162.95,42.143 162.966,41.922 
				162.897,41.733 162.767,41.581 162.579,41.452 162.35,41.338 162.084,41.224 161.789,41.118 161.493,40.997 161.189,40.86 
				160.901,40.701 160.635,40.503 160.391,40.268 160.202,39.979 160.065,39.637 159.997,39.229 160.004,38.743 160.042,38.446 
				160.096,38.165 160.172,37.907 160.262,37.665 160.383,37.437 160.52,37.239 160.68,37.049 160.871,36.883 161.092,36.739 
				161.333,36.617 161.606,36.503 161.91,36.42 162.252,36.35 162.625,36.297 163.034,36.268 163.483,36.259 163.762,36.259 
				164.02,36.268 164.256,36.276 164.468,36.284 164.659,36.297 164.833,36.313 164.984,36.329 165.121,36.344 165.25,36.358 
				165.357,36.381 165.455,36.397 165.547,36.412 165.623,36.426 165.69,36.435 165.758,36.45 165.819,36.458 165.431,38.172 
				165.431,38.172 			"/>
			<polyline fill="#827F7F" points="165.431,38.172 165.431,38.172 165.326,38.165 165.219,38.15 165.121,38.135 165.023,38.12 
				164.93,38.105 164.833,38.089 164.735,38.075 164.627,38.059 164.522,38.044 164.4,38.036 164.263,38.028 164.12,38.02 
				163.959,38.02 163.786,38.028 163.587,38.044 163.368,38.059 163.368,38.059 163.216,38.083 163.072,38.105 162.942,38.15 
				162.829,38.195 162.721,38.249 162.625,38.309 162.547,38.386 162.478,38.454 162.434,38.538 162.396,38.621 162.38,38.711 
				162.38,38.803 162.403,38.902 162.434,39 162.494,39.099 162.571,39.198 162.571,39.198 162.721,39.341 162.905,39.456 
				163.117,39.553 163.344,39.637 163.587,39.713 163.837,39.797 164.088,39.889 164.331,39.987 164.559,40.116 164.772,40.275 
				164.961,40.465 165.121,40.701 165.243,40.989 165.319,41.331 165.348,41.741 165.319,42.219 165.319,42.219 165.266,42.576 
				165.174,42.887 165.052,43.175 164.901,43.425 164.727,43.647 164.528,43.835 164.316,44.002 164.083,44.147 163.837,44.26 
				163.587,44.359 163.329,44.435 163.064,44.496 162.805,44.542 162.556,44.565 162.305,44.581 162.07,44.586 162.07,44.586 
				161.742,44.586 161.439,44.581 161.173,44.581 160.923,44.573 160.696,44.565 160.491,44.549 160.309,44.534 160.134,44.511 
				159.974,44.496 159.831,44.465 159.686,44.442 159.557,44.405 159.427,44.375 159.307,44.329 159.184,44.284 159.055,44.238 
				159.397,42.561 159.397,42.561 159.465,42.576 159.548,42.598 159.655,42.627 159.786,42.66 159.92,42.69 160.073,42.719 
				160.241,42.757 160.421,42.788 160.612,42.818 160.809,42.848 161.014,42.872 161.227,42.894 161.446,42.901 161.668,42.909 
				161.886,42.909 162.107,42.901 162.107,42.901 162.328,42.856 162.502,42.795 162.638,42.712 162.745,42.606 162.821,42.5 
				162.881,42.377 162.92,42.256 162.95,42.143 162.95,42.143 162.966,41.922 162.897,41.733 162.767,41.581 162.579,41.452 
				162.35,41.338 162.084,41.224 161.789,41.118 161.493,40.997 161.189,40.86 160.901,40.701 160.635,40.503 160.391,40.268 
				160.202,39.979 160.065,39.637 159.997,39.229 160.004,38.743 160.004,38.743 160.042,38.446 160.096,38.165 160.172,37.907 
				160.262,37.665 160.383,37.437 160.52,37.239 160.68,37.049 160.871,36.883 161.092,36.739 161.333,36.617 161.606,36.503 
				161.91,36.42 162.252,36.35 162.625,36.297 163.034,36.268 163.483,36.259 163.483,36.259 163.762,36.259 164.02,36.268 
				164.256,36.276 164.468,36.284 164.659,36.297 164.833,36.313 164.984,36.329 165.121,36.344 165.25,36.358 165.357,36.381 
				165.455,36.397 165.547,36.412 165.623,36.426 165.69,36.435 165.758,36.45 165.819,36.458 165.431,38.172 			"/>
			<polygon fill-rule="evenodd" clip-rule="evenodd" fill="#827F7F" points="167.231,34.583 169.334,34.583 169.023,36.42 
				170.291,36.42 170.017,38.135 168.68,38.097 167.953,42.333 167.945,42.485 167.982,42.614 168.059,42.712 168.158,42.795 
				168.294,42.848 168.446,42.894 168.612,42.924 168.795,42.94 168.961,42.932 169.113,42.917 169.25,42.894 169.372,42.864 
				169.471,42.833 169.54,42.811 169.584,42.795 169.599,42.788 169.334,44.2 169.281,44.238 169.227,44.268 169.174,44.298 
				169.122,44.329 169.069,44.351 169.007,44.375 168.94,44.397 168.871,44.42 168.795,44.442 168.718,44.458 168.627,44.473 
				168.538,44.489 168.439,44.504 168.325,44.519 168.202,44.534 168.073,44.549 167.496,44.549 167.192,44.526 166.927,44.496 
				166.685,44.451 166.48,44.397 166.304,44.329 166.161,44.254 166.032,44.163 165.933,44.063 165.857,43.958 165.803,43.829 
				165.766,43.698 165.743,43.555 165.736,43.395 165.736,43.229 165.758,43.054 165.782,42.864 167.231,34.583 167.231,34.583 			
				"/>
			<polyline fill="#827F7F" points="167.231,34.583 169.334,34.583 169.023,36.42 170.291,36.42 170.017,38.135 168.68,38.097 
				167.953,42.333 167.953,42.333 167.945,42.485 167.982,42.614 168.059,42.712 168.158,42.795 168.294,42.848 168.446,42.894 
				168.612,42.924 168.795,42.94 168.795,42.94 168.961,42.932 169.113,42.917 169.25,42.894 169.372,42.864 169.471,42.833 
				169.54,42.811 169.584,42.795 169.599,42.788 169.334,44.2 169.334,44.2 169.281,44.238 169.227,44.268 169.174,44.298 
				169.122,44.329 169.069,44.351 169.007,44.375 168.94,44.397 168.871,44.42 168.795,44.442 168.718,44.458 168.627,44.473 
				168.538,44.489 168.439,44.504 168.325,44.519 168.202,44.534 168.073,44.549 167.496,44.549 167.496,44.549 167.192,44.526 
				166.927,44.496 166.685,44.451 166.48,44.397 166.304,44.329 166.161,44.254 166.032,44.163 165.933,44.063 165.857,43.958 
				165.803,43.829 165.766,43.698 165.743,43.555 165.736,43.395 165.736,43.229 165.758,43.054 165.782,42.864 167.231,34.583 			
				"/>
			<polyline fill="#827F7F" points="171.968,40.997 171.968,40.997 171.945,41.125 171.938,41.261 171.953,41.406 171.983,41.55 
				172.036,41.695 172.098,41.833 172.18,41.976 172.271,42.104 172.377,42.235 172.491,42.349 172.614,42.461 172.749,42.552 
				172.887,42.637 173.038,42.704 173.19,42.757 173.342,42.788 173.342,42.788 173.539,42.818 173.729,42.841 173.926,42.864 
				174.124,42.879 174.321,42.887 174.526,42.887 174.723,42.879 174.928,42.864 175.133,42.833 175.338,42.795 175.551,42.75 
				175.755,42.682 175.969,42.598 176.188,42.506 176.401,42.386 176.621,42.256 176.317,44.125 176.317,44.125 176.195,44.184 
				176.075,44.247 175.953,44.291 175.84,44.337 175.725,44.375 175.603,44.413 175.482,44.442 175.353,44.465 175.216,44.489 
				175.065,44.504 174.906,44.519 174.731,44.534 174.534,44.542 174.33,44.542 174.092,44.549 173.842,44.549 173.842,44.549 
				173.471,44.542 173.092,44.504 172.711,44.451 172.333,44.359 171.96,44.247 171.604,44.1 171.262,43.912 170.943,43.691 
				170.647,43.433 170.389,43.122 170.169,42.772 169.986,42.37 169.858,41.922 169.775,41.413 169.751,40.852 169.79,40.23 
				169.79,40.23 169.821,39.987 169.865,39.706 169.926,39.411 170.009,39.09 170.124,38.766 170.26,38.438 170.434,38.105 
				170.647,37.786 170.889,37.482 171.185,37.194 171.52,36.936 171.899,36.708 172.338,36.518 172.833,36.381 173.378,36.292 
				173.995,36.259 173.995,36.259 174.291,36.268 174.602,36.297 174.914,36.35 175.225,36.426 175.528,36.542 175.825,36.678 
				176.098,36.86 176.348,37.072 176.575,37.331 176.766,37.635 176.917,37.983 177.024,38.386 177.084,38.84 177.092,39.356 
				177.04,39.933 176.924,40.572 176.887,41.035 171.354,41.035 171.702,39.539 175.027,39.539 175.027,39.539 175.042,39.35 
				175.034,39.167 175.018,39 174.989,38.849 174.936,38.705 174.883,38.575 174.807,38.461 174.731,38.355 174.641,38.264 
				174.542,38.188 174.427,38.12 174.313,38.059 174.192,38.014 174.071,37.983 173.942,37.96 173.805,37.945 173.805,37.945 
				173.661,37.953 173.524,37.975 173.395,38.006 173.266,38.051 173.136,38.112 173.024,38.18 172.909,38.264 172.811,38.355 
				172.711,38.461 172.62,38.575 172.538,38.697 172.469,38.827 172.4,38.963 172.347,39.114 172.301,39.266 172.271,39.425 
				171.968,40.997 			"/>
			<polygon fill-rule="evenodd" clip-rule="evenodd" fill="#827F7F" points="190.071,36.875 189.973,36.823 189.875,36.776 
				189.767,36.723 189.654,36.669 189.54,36.625 189.413,36.579 189.282,36.533 189.147,36.488 189.002,36.45 188.856,36.42 
				188.698,36.389 188.54,36.366 188.364,36.35 188.19,36.336 188.007,36.336 187.817,36.336 187.627,36.336 187.43,36.35 
				187.225,36.375 187.013,36.412 186.8,36.472 186.588,36.556 186.375,36.663 186.163,36.798 185.958,36.965 185.759,37.163 
				185.569,37.407 185.389,37.687 185.221,38.02 185.062,38.4 184.917,38.827 184.797,39.312 184.75,39.584 184.721,39.85 
				184.706,40.116 184.713,40.375 184.735,40.632 184.788,40.875 184.856,41.103 184.94,41.331 185.054,41.536 185.19,41.733 
				185.351,41.907 185.533,42.067 185.737,42.204 185.972,42.317 186.231,42.417 186.519,42.485 186.618,42.506 186.733,42.53 
				186.87,42.545 187.021,42.561 187.186,42.576 187.362,42.576 187.551,42.576 187.742,42.561 187.938,42.537 188.136,42.5 
				188.326,42.446 188.516,42.386 188.706,42.301 188.879,42.204 189.039,42.083 189.191,41.946 188.85,43.973 188.803,44.01 
				188.759,44.056 188.698,44.11 188.63,44.153 188.547,44.214 188.44,44.268 188.318,44.321 188.182,44.366 188.007,44.42 
				187.809,44.458 187.583,44.489 187.316,44.519 187.021,44.534 186.678,44.542 186.292,44.534 185.866,44.511 185.517,44.473 
				185.168,44.397 184.819,44.284 184.47,44.131 184.135,43.95 183.817,43.721 183.514,43.456 183.233,43.153 182.981,42.811 
				182.77,42.432 182.587,42.006 182.452,41.543 182.36,41.035 182.329,40.496 182.344,39.904 182.427,39.274 182.489,38.963 
				182.556,38.659 182.633,38.363 182.709,38.083 182.792,37.816 182.89,37.551 182.99,37.3 183.096,37.065 183.211,36.83 
				183.324,36.609 183.453,36.397 183.588,36.2 183.726,36.009 183.877,35.828 184.029,35.661 184.189,35.501 184.363,35.349 
				184.538,35.206 184.721,35.076 184.911,34.954 185.116,34.84 185.32,34.743 185.533,34.651 185.752,34.567 185.989,34.491 
				186.222,34.43 186.465,34.377 186.725,34.333 186.982,34.293 187.255,34.264 187.529,34.25 187.817,34.241 188.062,34.25 
				188.295,34.264 188.524,34.287 188.75,34.317 188.963,34.346 189.168,34.393 189.366,34.43 189.547,34.476 189.723,34.522 
				189.875,34.567 190.02,34.614 190.139,34.659 190.247,34.696 190.337,34.727 190.406,34.757 190.452,34.773 190.071,36.875 
				190.071,36.875 			"/>
			<polyline fill="#827F7F" points="190.071,36.875 190.071,36.875 189.973,36.823 189.875,36.776 189.767,36.723 189.654,36.669 
				189.54,36.625 189.413,36.579 189.282,36.533 189.147,36.488 189.002,36.45 188.856,36.42 188.698,36.389 188.54,36.366 
				188.364,36.35 188.19,36.336 188.007,36.336 187.817,36.336 187.817,36.336 187.627,36.336 187.43,36.35 187.225,36.375 
				187.013,36.412 186.8,36.472 186.588,36.556 186.375,36.663 186.163,36.798 185.958,36.965 185.759,37.163 185.569,37.407 
				185.389,37.687 185.221,38.02 185.062,38.4 184.917,38.827 184.797,39.312 184.797,39.312 184.75,39.584 184.721,39.85 
				184.706,40.116 184.713,40.375 184.735,40.632 184.788,40.875 184.856,41.103 184.94,41.331 185.054,41.536 185.19,41.733 
				185.351,41.907 185.533,42.067 185.737,42.204 185.972,42.317 186.231,42.417 186.519,42.485 186.519,42.485 186.618,42.506 
				186.733,42.53 186.87,42.545 187.021,42.561 187.186,42.576 187.362,42.576 187.551,42.576 187.742,42.561 187.938,42.537 
				188.136,42.5 188.326,42.446 188.516,42.386 188.706,42.301 188.879,42.204 189.039,42.083 189.191,41.946 188.85,43.973 
				188.85,43.973 188.803,44.01 188.759,44.056 188.698,44.11 188.63,44.153 188.547,44.214 188.44,44.268 188.318,44.321 
				188.182,44.366 188.007,44.42 187.809,44.458 187.583,44.489 187.316,44.519 187.021,44.534 186.678,44.542 186.292,44.534 
				185.866,44.511 185.866,44.511 185.517,44.473 185.168,44.397 184.819,44.284 184.47,44.131 184.135,43.95 183.817,43.721 
				183.514,43.456 183.233,43.153 182.981,42.811 182.77,42.432 182.587,42.006 182.452,41.543 182.36,41.035 182.329,40.496 
				182.344,39.904 182.427,39.274 182.427,39.274 182.489,38.963 182.556,38.659 182.633,38.363 182.709,38.083 182.792,37.816 
				182.89,37.551 182.99,37.3 183.096,37.065 183.211,36.83 183.324,36.609 183.453,36.397 183.588,36.2 183.726,36.009 
				183.877,35.828 184.029,35.661 184.189,35.501 184.363,35.349 184.538,35.206 184.721,35.076 184.911,34.954 185.116,34.84 
				185.32,34.743 185.533,34.651 185.752,34.567 185.989,34.491 186.222,34.43 186.465,34.377 186.725,34.333 186.982,34.293 
				187.255,34.264 187.529,34.25 187.817,34.241 187.817,34.241 188.062,34.25 188.295,34.264 188.524,34.287 188.75,34.317 
				188.963,34.346 189.168,34.393 189.366,34.43 189.547,34.476 189.723,34.522 189.875,34.567 190.02,34.614 190.139,34.659 
				190.247,34.696 190.337,34.727 190.406,34.757 190.452,34.773 190.071,36.875 			"/>
			<polygon fill-rule="evenodd" clip-rule="evenodd" fill="#827F7F" points="142.735,44.549 140.671,44.549 142.395,34.583 
				145.984,34.583 146.327,40.496 148.809,34.583 152.559,34.583 150.797,44.549 148.733,44.549 150.038,37.103 149.956,37.103 
				146.865,44.549 144.536,44.549 144.52,44.238 144.467,43.411 144.399,42.235 144.323,40.882 144.246,39.524 144.178,38.333 
				144.125,37.467 144.109,37.103 144.087,37.103 144.042,37.103 143.997,37.103 143.997,37.103 142.735,44.549 142.735,44.549 			
				"/>
			<polyline fill="#827F7F" points="142.735,44.549 140.671,44.549 142.395,34.583 145.984,34.583 146.327,40.496 148.809,34.583 
				152.559,34.583 150.797,44.549 148.733,44.549 150.038,37.103 149.956,37.103 146.865,44.549 144.536,44.549 144.536,44.549 
				144.52,44.238 144.467,43.411 144.399,42.235 144.323,40.882 144.246,39.524 144.178,38.333 144.125,37.467 144.109,37.103 
				144.109,37.103 144.087,37.103 144.042,37.103 143.997,37.103 143.997,37.103 142.735,44.549 			"/>
			<polygon fill-rule="evenodd" clip-rule="evenodd" fill="#827F7F" points="196.069,44.602 196.114,44.557 196.425,42.872 
				196.334,42.856 196.023,44.542 196.069,44.496 196.069,44.602 196.106,44.594 196.114,44.557 196.069,44.602 196.069,44.602 			
				"/>
			<polygon fill-rule="evenodd" clip-rule="evenodd" fill="#827F7F" points="194.118,44.549 194.164,44.602 196.069,44.602 
				196.069,44.496 194.164,44.496 194.209,44.549 194.118,44.549 194.111,44.602 194.164,44.602 194.118,44.549 194.118,44.549 			
				"/>
			<polygon fill-rule="evenodd" clip-rule="evenodd" fill="#827F7F" points="194.24,43.698 194.17,43.638 194.141,43.76 
				194.131,43.965 194.131,44.238 194.118,44.549 194.209,44.549 194.224,44.238 194.24,43.965 194.232,43.76 194.232,43.698 
				194.164,43.638 194.24,43.698 194.24,43.698 			"/>
			<polygon fill-rule="evenodd" clip-rule="evenodd" fill="#827F7F" points="191.287,44.67 191.287,44.67 191.499,44.702 
				191.705,44.723 191.917,44.717 192.137,44.702 192.356,44.67 192.569,44.632 192.782,44.573 192.994,44.511 193.184,44.435 
				193.381,44.344 193.565,44.254 193.722,44.147 193.882,44.04 194.018,43.935 194.141,43.813 194.24,43.698 194.164,43.638 
				194.065,43.752 193.958,43.858 193.821,43.965 193.678,44.071 193.518,44.163 193.336,44.254 193.154,44.344 192.963,44.42 
				192.767,44.481 192.554,44.542 192.34,44.581 192.137,44.61 191.917,44.625 191.705,44.632 191.499,44.61 191.302,44.581 
				191.302,44.581 191.287,44.67 191.287,44.67 			"/>
			<polygon fill-rule="evenodd" clip-rule="evenodd" fill="#827F7F" points="189.45,42.37 189.45,42.37 189.457,42.537 
				189.472,42.704 189.496,42.887 189.526,43.061 189.563,43.229 189.625,43.403 189.692,43.577 189.792,43.737 189.897,43.897 
				190.02,44.04 190.17,44.184 190.345,44.306 190.542,44.428 190.764,44.526 191.012,44.602 191.287,44.67 191.302,44.581 
				191.028,44.511 190.793,44.435 190.588,44.337 190.39,44.23 190.231,44.11 190.094,43.979 189.973,43.835 189.866,43.691 
				189.784,43.532 189.715,43.373 189.654,43.214 189.617,43.046 189.586,42.872 189.563,42.704 189.547,42.537 189.555,42.37 
				189.555,42.37 189.45,42.37 189.45,42.37 			"/>
			<polygon fill-rule="evenodd" clip-rule="evenodd" fill="#827F7F" points="192.174,39.456 192.174,39.456 191.909,39.5 
				191.651,39.57 191.4,39.653 191.158,39.759 190.921,39.88 190.695,40.033 190.489,40.193 190.292,40.375 190.11,40.564 
				189.95,40.776 189.798,41.004 189.684,41.255 189.586,41.512 189.518,41.786 189.472,42.074 189.45,42.37 189.555,42.37 
				189.563,42.074 189.609,41.801 189.677,41.543 189.776,41.286 189.889,41.049 190.026,40.836 190.186,40.625 190.352,40.436 
				190.549,40.268 190.754,40.108 190.966,39.972 191.204,39.85 191.43,39.745 191.681,39.661 191.924,39.592 192.174,39.547 
				192.174,39.547 192.174,39.456 192.174,39.456 			"/>
			<polygon fill-rule="evenodd" clip-rule="evenodd" fill="#827F7F" points="193.738,39.295 193.738,39.295 193.655,39.295 
				193.547,39.312 193.442,39.321 193.321,39.327 193.192,39.341 193.063,39.35 192.926,39.365 192.795,39.379 192.676,39.395 
				192.561,39.411 192.456,39.417 192.356,39.434 192.281,39.44 192.219,39.448 192.19,39.456 192.174,39.456 192.174,39.547 
				192.19,39.547 192.235,39.539 192.281,39.532 192.356,39.524 192.456,39.509 192.561,39.5 192.676,39.486 192.795,39.47 
				192.926,39.456 193.063,39.44 193.192,39.434 193.321,39.417 193.442,39.411 193.547,39.403 193.655,39.403 193.738,39.403 
				193.738,39.403 193.738,39.295 193.738,39.295 			"/>
			<polygon fill-rule="evenodd" clip-rule="evenodd" fill="#827F7F" points="194.763,39.379 194.809,39.341 194.778,39.341 
				194.709,39.334 194.588,39.327 194.444,39.312 194.278,39.312 194.103,39.312 193.92,39.295 193.738,39.295 193.738,39.403 
				193.92,39.403 194.103,39.403 194.278,39.417 194.444,39.417 194.588,39.417 194.709,39.425 194.778,39.434 194.809,39.434 
				194.854,39.395 194.809,39.434 194.847,39.44 194.854,39.395 194.763,39.379 194.763,39.379 			"/>
			<polygon fill-rule="evenodd" clip-rule="evenodd" fill="#827F7F" points="194.839,38.894 194.832,38.894 194.825,39.038 
				194.8,39.19 194.778,39.327 194.763,39.379 194.854,39.395 194.87,39.341 194.891,39.204 194.914,39.038 194.937,38.894 
				194.93,38.894 194.839,38.894 194.839,38.894 			"/>
			<polygon fill-rule="evenodd" clip-rule="evenodd" fill="#827F7F" points="193.935,38.143 193.935,38.15 194.111,38.158 
				194.27,38.204 194.42,38.272 194.55,38.363 194.656,38.469 194.747,38.598 194.809,38.735 194.839,38.894 194.93,38.894 
				194.899,38.72 194.839,38.552 194.733,38.409 194.612,38.286 194.467,38.18 194.299,38.112 194.125,38.067 193.935,38.044 
				193.935,38.051 193.935,38.143 193.935,38.143 			"/>
			<polygon fill-rule="evenodd" clip-rule="evenodd" fill="#827F7F" points="190.679,38.507 190.754,38.552 190.831,38.514 
				190.929,38.461 191.059,38.416 191.225,38.372 191.409,38.333 191.604,38.294 191.825,38.256 192.045,38.227 192.281,38.195 
				192.524,38.172 192.767,38.15 193.016,38.135 193.26,38.135 193.496,38.135 193.722,38.135 193.935,38.143 193.935,38.051 
				193.722,38.044 193.496,38.028 193.26,38.028 193.016,38.044 192.767,38.059 192.524,38.083 192.281,38.105 192.045,38.135 
				191.81,38.165 191.589,38.204 191.393,38.242 191.209,38.28 191.043,38.325 190.899,38.372 190.786,38.422 190.695,38.477 
				190.77,38.522 190.679,38.507 190.679,38.507 			"/>
			<polygon fill-rule="evenodd" clip-rule="evenodd" fill="#827F7F" points="191.242,36.639 191.209,36.678 190.679,38.507 
				190.77,38.522 191.302,36.692 191.271,36.731 191.242,36.639 191.218,36.647 191.209,36.678 191.242,36.639 191.242,36.639 			
				"/>
			<polygon fill-rule="evenodd" clip-rule="evenodd" fill="#827F7F" points="194.619,36.292 194.619,36.292 194.361,36.276 
				194.103,36.268 193.86,36.268 193.625,36.268 193.389,36.268 193.168,36.284 192.948,36.292 192.737,36.307 192.53,36.32 
				192.326,36.35 192.137,36.381 191.948,36.42 191.764,36.458 191.583,36.51 191.409,36.571 191.242,36.639 191.271,36.731 
				191.439,36.663 191.612,36.602 191.78,36.547 191.962,36.51 192.153,36.472 192.34,36.442 192.53,36.412 192.737,36.397 
				192.948,36.381 193.168,36.375 193.389,36.375 193.625,36.375 193.86,36.375 194.103,36.375 194.361,36.381 194.619,36.381 
				194.619,36.381 194.619,36.292 194.619,36.292 			"/>
			<polygon fill-rule="evenodd" clip-rule="evenodd" fill="#827F7F" points="197.223,38.864 197.223,38.864 197.26,38.552 
				197.26,38.264 197.208,37.998 197.124,37.748 197.002,37.513 196.849,37.3 196.667,37.111 196.479,36.944 196.258,36.798 
				196.03,36.663 195.788,36.556 195.552,36.464 195.303,36.397 195.066,36.344 194.832,36.307 194.619,36.292 194.619,36.381 
				194.832,36.397 195.051,36.435 195.287,36.488 195.521,36.556 195.758,36.647 195.985,36.754 196.213,36.875 196.417,37.019 
				196.608,37.186 196.774,37.361 196.926,37.557 197.032,37.78 197.116,38.014 197.169,38.264 197.169,38.552 197.131,38.849 
				197.131,38.849 197.223,38.864 197.223,38.864 			"/>
			<polygon fill-rule="evenodd" clip-rule="evenodd" fill="#827F7F" points="196.425,42.872 196.425,42.872 197.223,38.864 
				197.131,38.849 196.334,42.856 196.334,42.856 196.425,42.872 196.425,42.872 			"/>
			<polygon fill-rule="evenodd" clip-rule="evenodd" fill="#827F7F" points="196.95,44.549 199.091,44.549 199.091,44.549 
				199.857,40.23 199.887,40.064 199.933,39.896 199.978,39.729 200.04,39.562 200.115,39.395 200.206,39.235 200.305,39.084 
				200.426,38.94 200.563,38.811 200.714,38.689 200.889,38.575 201.086,38.483 201.306,38.409 201.549,38.348 201.815,38.301 
				202.11,38.286 202.217,38.286 202.278,38.286 202.3,38.286 202.3,38.286 202.642,36.336 202.429,36.35 202.225,36.375 
				202.035,36.412 201.852,36.464 201.686,36.525 201.526,36.602 201.374,36.685 201.229,36.776 201.094,36.883 200.964,36.989 
				200.843,37.111 200.722,37.231 200.608,37.361 200.495,37.504 200.38,37.641 200.275,37.793 200.502,36.42 198.369,36.42 
				196.95,44.549 196.95,44.549 196.95,44.549 			"/>
			<polyline fill="#827F7F" points="196.95,44.549 199.091,44.549 199.091,44.549 199.857,40.23 199.857,40.23 199.887,40.064 
				199.933,39.896 199.978,39.729 200.04,39.562 200.115,39.395 200.206,39.235 200.305,39.084 200.426,38.94 200.563,38.811 
				200.714,38.689 200.889,38.575 201.086,38.483 201.306,38.409 201.549,38.348 201.815,38.301 202.11,38.286 202.11,38.286 
				202.217,38.286 202.278,38.286 202.3,38.286 202.3,38.286 202.642,36.336 202.642,36.336 202.429,36.35 202.225,36.375 
				202.035,36.412 201.852,36.464 201.686,36.525 201.526,36.602 201.374,36.685 201.229,36.776 201.094,36.883 200.964,36.989 
				200.843,37.111 200.722,37.231 200.608,37.361 200.495,37.504 200.38,37.641 200.275,37.793 200.502,36.42 198.369,36.42 
				196.95,44.549 196.95,44.549 			"/>
			<polygon fill-rule="evenodd" clip-rule="evenodd" fill="#827F7F" points="176.849,44.549 178.989,44.549 179.027,44.549 
				179.756,40.23 179.787,40.064 179.825,39.904 179.862,39.745 179.916,39.592 179.975,39.44 180.052,39.295 180.143,39.16 
				180.249,39.031 180.371,38.916 180.507,38.803 180.675,38.711 180.856,38.628 181.069,38.559 181.305,38.5 181.563,38.461 
				181.858,38.438 181.881,38.438 181.913,38.446 181.95,38.454 181.988,38.454 182.026,38.461 182.057,38.469 182.078,38.477 
				182.086,38.477 182.094,38.446 182.117,38.355 182.147,38.219 182.186,38.051 182.238,37.854 182.292,37.641 182.36,37.428 
				182.427,37.215 182.489,37.072 182.565,36.926 182.641,36.784 182.716,36.655 182.784,36.542 182.837,36.45 182.875,36.397 
				182.89,36.375 182.884,36.375 182.853,36.366 182.816,36.358 182.762,36.35 182.709,36.35 182.649,36.344 182.595,36.336 
				182.542,36.336 182.306,36.35 182.094,36.375 181.897,36.412 181.715,36.458 181.541,36.518 181.38,36.594 181.236,36.669 
				181.099,36.76 180.971,36.86 180.848,36.973 180.735,37.088 180.622,37.215 180.507,37.346 180.401,37.491 180.288,37.641 
				180.173,37.793 180.446,36.42 178.268,36.42 176.849,44.549 176.849,44.549 176.849,44.549 			"/>
			<polyline fill="#827F7F" points="176.849,44.549 178.989,44.549 179.027,44.549 179.756,40.23 179.756,40.23 179.787,40.064 
				179.825,39.904 179.862,39.745 179.916,39.592 179.975,39.44 180.052,39.295 180.143,39.16 180.249,39.031 180.371,38.916 
				180.507,38.803 180.675,38.711 180.856,38.628 181.069,38.559 181.305,38.5 181.563,38.461 181.858,38.438 181.858,38.438 
				181.881,38.438 181.913,38.446 181.95,38.454 181.988,38.454 182.026,38.461 182.057,38.469 182.078,38.477 182.086,38.477 
				182.086,38.477 182.094,38.446 182.117,38.355 182.147,38.219 182.186,38.051 182.238,37.854 182.292,37.641 182.36,37.428 
				182.427,37.215 182.427,37.215 182.489,37.072 182.565,36.926 182.641,36.784 182.716,36.655 182.784,36.542 182.837,36.45 
				182.875,36.397 182.89,36.375 182.89,36.375 182.884,36.375 182.853,36.366 182.816,36.358 182.762,36.35 182.709,36.35 
				182.649,36.344 182.595,36.336 182.542,36.336 182.542,36.336 182.306,36.35 182.094,36.375 181.897,36.412 181.715,36.458 
				181.541,36.518 181.38,36.594 181.236,36.669 181.099,36.76 180.971,36.86 180.848,36.973 180.735,37.088 180.622,37.215 
				180.507,37.346 180.401,37.491 180.288,37.641 180.173,37.793 180.446,36.42 178.268,36.42 176.849,44.549 176.849,44.549 			"/>
			<path fill-rule="evenodd" clip-rule="evenodd" fill="#827F7F" d="M177.084,38.84l-0.061-0.454l-0.107-0.403l-0.15-0.348
				l-0.191-0.305l-0.227-0.259l-0.25-0.212l-0.273-0.182l-0.297-0.137l-0.303-0.115l-0.312-0.076l-0.312-0.053l-0.312-0.029
				l-0.296-0.009l-0.616,0.032l-0.545,0.09l-0.495,0.137l-0.439,0.19l-0.379,0.228l-0.335,0.258l-0.296,0.288l-0.242,0.304
				l-0.213,0.319l-0.174,0.333l-0.137,0.328l-0.114,0.324l-0.083,0.32l-0.062,0.295l-0.044,0.281l-0.031,0.243l-0.038,0.622
				l0.023,0.561l0.083,0.51l0.128,0.447l0.184,0.402l0.22,0.35l0.258,0.312l0.296,0.258l0.319,0.221l0.342,0.188l0.356,0.146
				l0.372,0.112l0.379,0.092l0.381,0.054l0.379,0.038l0.371,0.007h0.25l0.237-0.007h0.204l0.197-0.009l0.175-0.015l0.159-0.015
				l0.151-0.016l0.137-0.023l0.129-0.023l0.121-0.029l0.122-0.038l0.115-0.037l0.112-0.047l0.122-0.044l0.12-0.062l0.122-0.06
				l0.304-1.868l-0.22,0.13l-0.213,0.12l-0.219,0.092l-0.214,0.084l-0.204,0.068l-0.213,0.045l-0.205,0.038l-0.205,0.03
				l-0.205,0.016l-0.197,0.008h-0.205l-0.197-0.008l-0.197-0.016l-0.197-0.022l-0.19-0.023l-0.196-0.03l-0.152-0.03l-0.152-0.054
				l-0.15-0.066l-0.139-0.085l-0.135-0.091l-0.123-0.112l-0.113-0.114l-0.106-0.131l-0.091-0.128l-0.082-0.144l-0.062-0.138
				l-0.053-0.145l-0.03-0.145l-0.015-0.145l0.006-0.128l0.019-0.099h4.925l0.037-0.463l0.115-0.639l0.053-0.577L177.084,38.84z
				 M175.027,39.539h-2.773l0.003-0.007h-0.005l0.02-0.106l0.03-0.159l0.046-0.152l0.053-0.15l0.069-0.137l0.068-0.13l0.082-0.122
				l0.092-0.113l0.1-0.106l0.098-0.091l0.115-0.084l0.112-0.068l0.13-0.061l0.129-0.045l0.129-0.031l0.137-0.022l0.145-0.008
				l0.137,0.016l0.129,0.022l0.121,0.031l0.121,0.045l0.114,0.061l0.114,0.068l0.1,0.076l0.09,0.091l0.076,0.106l0.076,0.113
				l0.053,0.13l0.053,0.145L175.018,39l0.016,0.167l0.009,0.183L175.027,39.539z"/>
			<path fill-rule="evenodd" clip-rule="evenodd" fill="#827F7F" d="M197.162,38.006l-0.083-0.244l-0.115-0.228l-0.151-0.204
				l-0.173-0.182l-0.191-0.168l-0.213-0.144l-0.228-0.129l-0.233-0.106l-0.236-0.092l-0.244-0.068l-0.234-0.053l-0.228-0.039
				l-0.213-0.014l-0.258-0.008l-0.258-0.009h-0.243h-0.235h-0.235l-0.221,0.009l-0.221,0.008l-0.211,0.014l-0.207,0.016
				l-0.195,0.031l-0.19,0.029l-0.19,0.038l-0.182,0.039l-0.174,0.053l-0.176,0.061l-0.166,0.068l-0.531,1.829l0.082-0.045
				l0.107-0.054l0.137-0.044l0.167-0.047l0.182-0.039l0.198-0.037l0.219-0.038l0.229-0.03l0.235-0.03l0.243-0.022l0.243-0.022
				l0.249-0.016l0.244-0.007h0.235l0.227,0.007l0.213,0.008l0.183,0.015l0.168,0.046l0.158,0.069l0.137,0.098l0.115,0.113
				l0.099,0.137l0.06,0.152l0.029,0.167l-0.014,0.144l-0.022,0.16l-0.022,0.137l-0.016,0.053h-0.031l-0.068-0.008l-0.121-0.008
				l-0.145-0.007h-0.166l-0.175-0.009l-0.183-0.006h-0.183h-0.083l-0.107,0.006l-0.105,0.009l-0.121,0.007l-0.129,0.016
				l-0.129,0.008l-0.137,0.016l-0.131,0.015l-0.119,0.015l-0.115,0.016l-0.105,0.008l-0.1,0.016l-0.075,0.007l-0.054,0.007
				L192.19,39.5h-0.016l-0.258,0.047l-0.251,0.067l-0.25,0.085l-0.235,0.104l-0.235,0.122l-0.22,0.144l-0.205,0.16l-0.197,0.175
				l-0.176,0.19l-0.158,0.212l-0.145,0.22l-0.113,0.243l-0.1,0.258l-0.068,0.266l-0.045,0.28l-0.017,0.296v0.167l0.017,0.167
				l0.021,0.176l0.031,0.175l0.038,0.167l0.061,0.166l0.069,0.168l0.091,0.159l0.105,0.151l0.121,0.145l0.145,0.137l0.166,0.121
				l0.198,0.113l0.214,0.1l0.241,0.076l0.273,0.068l0.205,0.029l0.206,0.023l0.212-0.008l0.221-0.016l0.213-0.029l0.211-0.039
				l0.213-0.061l0.205-0.061l0.189-0.075l0.19-0.092l0.183-0.091l0.158-0.098l0.152-0.107l0.137-0.105l0.114-0.113l0.098-0.114
				l-0.015,0.091v0.205l-0.008,0.272l-0.015,0.312h1.905l0.312-1.686l0.796-4.008l0.038-0.304v-0.288L197.162,38.006z
				 M194.528,41.073l-0.029,0.213l-0.039,0.219l-0.031,0.213l-0.021,0.084l-0.03,0.09l-0.039,0.092l-0.052,0.091l-0.069,0.099
				l-0.085,0.092l-0.089,0.099l-0.107,0.083l-0.121,0.091l-0.136,0.077l-0.145,0.068l-0.166,0.061l-0.176,0.053l-0.198,0.038
				l-0.212,0.022l-0.228,0.008l-0.129-0.008l-0.129-0.022l-0.13-0.046l-0.113-0.075l-0.091-0.114l-0.063-0.152l-0.035-0.204
				l0.008-0.259l0.022-0.129l0.044-0.121l0.054-0.114l0.069-0.106l0.083-0.1l0.083-0.082l0.099-0.084l0.1-0.068l0.099-0.067
				l0.106-0.054l0.09-0.047l0.099-0.044l0.085-0.03l0.075-0.023l0.062-0.022l0.052-0.008l0.076-0.015l0.1-0.023l0.1-0.014
				l0.111-0.023l0.115-0.016l0.121-0.016l0.121-0.015l0.122-0.016l0.113-0.008h0.114l0.1,0.008l0.083,0.009l0.075,0.021l0.055,0.023
				l0.029,0.037l0.015,0.046L194.528,41.073z"/>
			<path fill-rule="evenodd" clip-rule="evenodd" fill="#827F7F" d="M159.473,38.006l-0.076-0.244l-0.112-0.228l-0.152-0.204
				l-0.169-0.182l-0.188-0.168l-0.214-0.144l-0.228-0.129l-0.228-0.106l-0.235-0.092l-0.243-0.068l-0.234-0.053l-0.229-0.039
				l-0.212-0.014l-0.266-0.008l-0.267-0.009h-0.25h-0.243h-0.235l-0.228,0.009l-0.221,0.008l-0.212,0.014l-0.205,0.016l-0.196,0.031
				l-0.197,0.029l-0.184,0.038l-0.182,0.039l-0.184,0.053l-0.166,0.061l-0.167,0.068l-0.54,1.829l0.085-0.045l0.105-0.054
				l0.138-0.044l0.167-0.047l0.182-0.039l0.196-0.037l0.221-0.038l0.229-0.03l0.235-0.03l0.242-0.022l0.243-0.022l0.251-0.016
				l0.242-0.007h0.235l0.229,0.007l0.213,0.008l0.196,0.015l0.183,0.046l0.159,0.069l0.144,0.098l0.122,0.113l0.091,0.137
				l0.068,0.152l0.03,0.167l-0.016,0.144l-0.037,0.16l-0.046,0.137l-0.016,0.053h-0.022l-0.075-0.008l-0.106-0.008l-0.137-0.007
				h-0.167l-0.166-0.009l-0.182-0.006h-0.176h-0.083l-0.107,0.006l-0.112,0.009l-0.123,0.007l-0.119,0.016l-0.138,0.008l-0.13,0.016
				l-0.129,0.015l-0.13,0.015l-0.113,0.016l-0.106,0.008l-0.091,0.016l-0.083,0.007l-0.054,0.007l-0.038,0.008h-0.014l-0.267,0.047
				l-0.258,0.067l-0.251,0.085l-0.243,0.104l-0.227,0.122l-0.221,0.144l-0.212,0.16l-0.19,0.175l-0.183,0.19l-0.16,0.212
				l-0.136,0.22l-0.121,0.243l-0.099,0.258l-0.076,0.266l-0.047,0.28l-0.021,0.296v0.167l0.016,0.167l0.021,0.176l0.031,0.175
				l0.046,0.167l0.06,0.166l0.077,0.168l0.091,0.159l0.105,0.151l0.123,0.145l0.151,0.137l0.166,0.121l0.19,0.113l0.212,0.1
				l0.243,0.076l0.266,0.068l0.205,0.029l0.213,0.023l0.22-0.008l0.221-0.016l0.227-0.029l0.222-0.045l0.218-0.055l0.222-0.068
				l0.204-0.076l0.198-0.091l0.189-0.091l0.182-0.106l0.16-0.105l0.145-0.114l0.121-0.121l0.106-0.122l-0.031,0.114l-0.028,0.213
				l-0.039,0.28l-0.054,0.312h1.913l0.305-1.686l0.766-4.008l0.045-0.304v-0.288L159.473,38.006z M156.838,41.081l-0.045,0.242
				l-0.053,0.252l-0.062,0.219l-0.021,0.084l-0.037,0.084l-0.048,0.09l-0.053,0.092l-0.061,0.092l-0.076,0.082l-0.09,0.092
				l-0.099,0.076l-0.114,0.083l-0.129,0.069l-0.145,0.066l-0.15,0.054l-0.176,0.045l-0.197,0.031l-0.205,0.022l-0.228,0.008
				l-0.121-0.008l-0.122-0.022l-0.129-0.046l-0.114-0.075l-0.099-0.114l-0.076-0.152l-0.037-0.204l0.006-0.259l0.025-0.121
				l0.044-0.121l0.053-0.107l0.077-0.098l0.082-0.091l0.092-0.092l0.1-0.075l0.105-0.076l0.099-0.061l0.106-0.053l0.098-0.054
				l0.099-0.046l0.085-0.037l0.083-0.03l0.062-0.024l0.052-0.015l0.085-0.022l0.09-0.023l0.106-0.021l0.114-0.016l0.121-0.016
				l0.122-0.015l0.129-0.015l0.12-0.009h0.114h0.114l0.099,0.009l0.084,0.015l0.075,0.015l0.045,0.023l0.031,0.037l0.008,0.038
				L156.838,41.081z"/>
		</g>
	</g>
	<path fill-rule="evenodd" clip-rule="evenodd" fill="#827F7F" d="M208.413,34.746l-0.533,2.983l-0.045-0.091l-0.061-0.092
		l-0.068-0.099l-0.076-0.099l-0.092-0.099l-0.099-0.099l-0.113-0.101l-0.121-0.089l-0.137-0.083l-0.151-0.085l-0.152-0.067
		l-0.175-0.061l-0.182-0.054l-0.198-0.038l-0.212-0.023l-0.222-0.006l-0.311,0.015l-0.303,0.046l-0.304,0.066l-0.303,0.107
		l-0.289,0.129l-0.289,0.167l-0.28,0.189l-0.266,0.221l-0.252,0.251l-0.234,0.271l-0.229,0.305l-0.197,0.342l-0.188,0.364
		l-0.16,0.388l-0.137,0.424l-0.114,0.449l-0.068,0.387l-0.037,0.387l-0.008,0.395l0.023,0.387l0.061,0.389l0.084,0.371l0.121,0.355
		l0.15,0.344l0.183,0.317l0.213,0.282l0.243,0.257l0.273,0.222l0.304,0.174l0.334,0.129l0.364,0.083l0.396,0.03h0.151l0.151-0.008
		l0.145-0.015l0.15-0.024l0.152-0.021l0.145-0.037l0.145-0.038l0.144-0.054l0.145-0.068l0.137-0.068l0.137-0.082l0.137-0.1
		l0.137-0.107l0.128-0.121l0.13-0.135l0.121-0.153v0.077l-0.152,0.842h2.104l1.715-9.929H208.413z M207.364,40.264l-0.023,0.221
		l-0.037,0.212l-0.039,0.204l-0.052,0.205l-0.062,0.197l-0.075,0.191l-0.085,0.181l-0.098,0.175l-0.107,0.166l-0.113,0.152
		l-0.129,0.139l-0.145,0.127l-0.15,0.115l-0.16,0.091l-0.174,0.083l-0.184,0.054l-0.197,0.046l-0.213,0.015l-0.303-0.061
		l-0.25-0.167l-0.197-0.25l-0.151-0.312l-0.101-0.357l-0.052-0.371l-0.017-0.363l0.039-0.335l0.045-0.221l0.062-0.219l0.06-0.206
		l0.076-0.205l0.082-0.197l0.101-0.182l0.106-0.176l0.113-0.166l0.129-0.145l0.129-0.129l0.152-0.121l0.152-0.1l0.174-0.075
		l0.175-0.061l0.189-0.03l0.206-0.016l0.158,0.016l0.145,0.037l0.137,0.062l0.129,0.091l0.115,0.105l0.098,0.123l0.092,0.145
		l0.075,0.15l0.062,0.175l0.053,0.183l0.03,0.189l0.023,0.197l0.007,0.212V40.264z"/>
</g>
</svg>
