<?xml version="1.0" encoding="utf-8"?>
<!-- Generator: Adobe Illustrator 19.0.0, SVG Export Plug-In . SVG Version: 6.00 Build 0)  -->
<svg version="1.1" id="Layer_2" xmlns="http://www.w3.org/2000/svg" xmlns:xlink="http://www.w3.org/1999/xlink" x="0px" y="0px"
	 viewBox="0 0 110 65" style="enable-background:new 0 0 110 65;" xml:space="preserve">
<style type="text/css">
	.st0{fill:#83807F;}
</style>
<g id="XMLID_145_">
	<path id="XMLID_162_" class="st0" d="M85.7,28.9H85v3.6h0.7c1.5,0,2.2-0.6,2.2-1.8C87.9,29.5,87.1,28.9,85.7,28.9z"/>
	<path id="XMLID_161_" class="st0" d="M91.4,27.8L91.4,27.8l0,0.3h0c0.1,0,0.2,0,0.2-0.1C91.6,27.9,91.6,27.8,91.4,27.8z"/>
	<path id="XMLID_160_" class="st0" d="M20.6,29H20v7.8h0.6c1.5,0,2.4-0.3,3.1-0.9c0.8-0.7,1.3-1.8,1.3-3c0-1.1-0.5-2.2-1.3-2.9
		C23,29.3,22.1,29,20.6,29z"/>
	<path id="XMLID_149_" class="st0" d="M103.6,3.8H6.5c-2.3,0-4.2,1.9-4.2,4.2v50c0,2.3,1.9,4.2,4.2,4.2h97.1c2.3,0,4.2-1.9,4.2-4.2
		v-50C107.8,5.6,105.9,3.8,103.6,3.8z M25.2,37.4c-1.1,0.9-2.4,1.4-4.2,1.4h-3.3V27.1H21c3.7,0,6.3,2.4,6.3,5.9
		C27.3,34.7,26.5,36.3,25.2,37.4z M30.7,38.8h-2.3V27.1h2.3V38.8z M35.6,39.1c-1.7,0-3-0.7-4.1-2.2l1.5-1.4c0.5,1,1.4,1.6,2.5,1.6
		c1,0,1.8-0.7,1.8-1.7c0-0.5-0.2-0.9-0.7-1.2c-0.2-0.1-0.7-0.4-1.6-0.7c-2.1-0.8-2.9-1.6-2.9-3.2c0-1.9,1.6-3.4,3.7-3.4
		c1.3,0,2.5,0.4,3.5,1.3l-1.2,1.6c-0.6-0.7-1.2-0.9-1.8-0.9c-1,0-1.7,0.6-1.7,1.3c0,0.6,0.4,1,1.8,1.5c2.6,1,3.4,1.8,3.4,3.7
		C39.7,37.5,38,39.1,35.6,39.1z M49.4,30.2c-1-0.9-1.8-1.3-2.9-1.3c-2.1,0-3.8,1.8-3.8,4c0,2.4,1.6,4,3.9,4c1,0,1.8-0.4,2.8-1.3v2.7
		c-1,0.5-1.9,0.7-2.9,0.7c-3.5,0-6.2-2.7-6.2-6.1c0-3.4,2.8-6.1,6.2-6.1c1,0,1.8,0.2,2.8,0.7V30.2z M56.6,39.1
		c-3.6,0-6.3-2.6-6.3-6.2c0-3.3,2.8-6,6.3-6c3.5,0,6.2,2.7,6.2,6.1C62.8,36.4,60.1,39.1,56.6,39.1z M68.6,39.1h-1.2l-5-12h2.5
		l3.1,7.9l3.2-7.9h2.5L68.6,39.1z M81.2,29H77v2.6h4v2h-4v3.2h4.2v2h-6.5V27.1h6.5V29z M88.5,38.8l-3.2-4.7H85v4.7h-2.3V27.1h3.4
		c2.6,0,4.2,1.3,4.2,3.5c0,1.8-0.9,3-2.7,3.3l3.7,4.9H88.5z M91.5,29c-0.5,0-0.9-0.4-0.9-0.9c0-0.5,0.4-0.9,0.9-0.9
		c0.5,0,0.9,0.4,0.9,0.9S92,29,91.5,29z"/>
	<path id="XMLID_146_" class="st0" d="M91.5,27.4c-0.4,0-0.7,0.3-0.7,0.7c0,0.4,0.3,0.7,0.7,0.7c0.4,0,0.7-0.3,0.7-0.7
		C92.2,27.7,91.9,27.4,91.5,27.4z M91.7,28.7l-0.3-0.4v0.4h-0.2v-1h0.3c0.3,0,0.4,0.1,0.4,0.3c0,0.1-0.1,0.2-0.2,0.3l0.3,0.4
		C92,28.7,91.7,28.7,91.7,28.7z"/>
</g>
<g id="XMLID_144_">
</g>
<g id="XMLID_163_">
</g>
<g id="XMLID_164_">
</g>
<g id="XMLID_165_">
</g>
<g id="XMLID_166_">
</g>
<g id="XMLID_167_">
</g>
</svg>
