<?xml version="1.0" encoding="utf-8"?>
<!-- Generator: Adobe Illustrator 19.0.0, SVG Export Plug-In . SVG Version: 6.00 Build 0)  -->
<svg version="1.1" id="Layer_2" xmlns="http://www.w3.org/2000/svg" xmlns:xlink="http://www.w3.org/1999/xlink" x="0px" y="0px"
	 viewBox="0 0 110 65" style="enable-background:new 0 0 110 65;" xml:space="preserve">
<style type="text/css">
	.st0{fill:#83807F;}
</style>
<g id="XMLID_145_">
	<path id="XMLID_203_" class="st0" d="M53.3,17.2l-1,1.2h5.2c-0.3-0.4-0.7-0.8-1.1-1.2H53.3z"/>
	<path id="XMLID_202_" class="st0" d="M51.2,20l-0.7,1.2h8.9c-0.2-0.4-0.5-0.8-0.8-1.2H51.2z"/>
	<path id="XMLID_201_" class="st0" d="M49.7,22.7l-0.5,1.2h11.6c-0.2-0.4-0.4-0.8-0.6-1.2H49.7z"/>
	<path id="XMLID_200_" class="st0" d="M48.6,25.4l-0.4,1.2h13.4c-0.1-0.4-0.2-0.8-0.4-1.2H48.6z"/>
	<path id="XMLID_199_" class="st0" d="M48.4,38.5l0.4,1.2h12.5c0.1-0.4,0.3-0.8,0.4-1.2H48.4z"/>
	<path id="XMLID_198_" class="st0" d="M49.4,41.2l0.6,1.2h10.2c0.2-0.4,0.4-0.8,0.6-1.2H49.4z"/>
	<path id="XMLID_197_" class="st0" d="M50.8,43.9l0.8,1.2h7c0.3-0.4,0.5-0.8,0.8-1.2H50.8z"/>
	<path id="XMLID_196_" class="st0" d="M52.7,46.7l1.1,1.2h2.6c0.4-0.4,0.7-0.8,1.1-1.2H52.7z"/>
	<path id="XMLID_195_" class="st0" d="M47.9,28.1l-0.2,1.2h14.5c-0.1-0.4-0.1-0.8-0.2-1.2H47.9z"/>
	<path id="XMLID_194_" class="st0" d="M47.4,31.8c0-0.1,0-0.1,0-0.2L47.4,31.8L47.4,31.8z"/>
	<path id="XMLID_193_" class="st0" d="M47.6,30.6l-0.2,1.1c0,0.1,0,0.1,0,0.2h15c0-0.4,0-0.8-0.1-1.2H47.6z"/>
	<path id="XMLID_192_" class="st0" d="M47.7,35.8c0.1,0.4,0.1,0.8,0.2,1.2H62c0.1-0.4,0.2-0.8,0.2-1.2H47.7z"/>
	<path id="XMLID_191_" class="st0" d="M47.4,33.1c0,0.4,0,0.8,0.1,1.2h14.9c0-0.4,0.1-0.8,0.1-1.2H47.4z"/>
	<path id="XMLID_188_" class="st0" d="M103.7,3.4H6.6c-2.3,0-4.2,1.9-4.2,4.2v50c0,2.3,1.9,4.2,4.2,4.2h97.1c2.3,0,4.2-1.9,4.2-4.2
		v-50C107.9,5.3,106,3.4,103.7,3.4z M70.2,55C64.4,55,59,52.7,55,49c-4,3.6-9.2,5.7-15,5.7c-12.4,0-22.5-10.1-22.5-22.5
		C17.5,19.9,27.6,9.8,40,9.8c5.9,0,11.3,2.3,15.3,6c4-3.6,9.2-5.7,15-5.7c12.4,0,22.5,10.1,22.5,22.5C92.7,44.9,82.6,55,70.2,55z"/>
	<g id="XMLID_149_">
		<g id="XMLID_150_">
			<polygon id="XMLID_187_" class="st0" points="44.4,31.2 44.3,31.2 44.2,31.2 44.1,31.1 44,31.1 43.9,31.1 43.8,31.1 43.7,31.1 
				43.6,31.1 43.5,31 43.4,31 43.3,31 43.1,31 43,31 42.8,31 42.6,31 42.4,31.1 42.2,31.1 42.1,31.1 41.9,31.2 41.8,31.2 41.7,31.2 
				41.6,31.3 41.5,31.4 41.5,31.5 41.4,31.5 41.4,31.6 41.4,31.7 41.4,31.8 41.4,31.9 41.4,32 41.5,32.1 41.6,32.2 41.7,32.3 
				41.9,32.5 42.1,32.6 42.3,32.6 42.6,32.7 42.8,32.8 43.1,32.9 43.3,33 43.6,33.1 43.8,33.3 44,33.5 44.1,33.7 44.2,34 44.3,34.3 
				44.3,34.7 44.3,35.2 44.3,35.6 44.2,35.9 44.1,36.2 43.9,36.4 43.7,36.6 43.5,36.8 43.3,37 43.1,37.1 42.8,37.3 42.6,37.4 
				42.3,37.4 42.1,37.5 41.8,37.5 41.6,37.6 41.3,37.6 41.1,37.6 40.7,37.6 40.4,37.6 40.2,37.6 39.9,37.6 39.7,37.6 39.5,37.5 
				39.3,37.5 39.1,37.5 39,37.5 38.8,37.5 38.7,37.4 38.6,37.4 38.4,37.4 38.3,37.3 38.2,37.3 38.1,37.2 38.4,35.6 38.5,35.6 
				38.5,35.6 38.7,35.6 38.8,35.7 38.9,35.7 39.1,35.7 39.2,35.8 39.4,35.8 39.6,35.8 39.8,35.8 40,35.9 40.2,35.9 40.4,35.9 
				40.7,35.9 40.9,35.9 41.1,35.9 41.3,35.9 41.5,35.8 41.6,35.7 41.7,35.6 41.8,35.5 41.9,35.4 41.9,35.3 42,35.1 42,34.9 
				41.9,34.7 41.8,34.6 41.6,34.5 41.4,34.3 41.1,34.2 40.8,34.1 40.5,34 40.2,33.9 39.9,33.7 39.6,33.5 39.4,33.3 39.2,33 
				39.1,32.6 39,32.2 39,31.7 39,31.4 39.1,31.2 39.2,30.9 39.3,30.7 39.4,30.4 39.5,30.2 39.7,30 39.9,29.9 40.1,29.7 40.3,29.6 
				40.6,29.5 40.9,29.4 41.3,29.3 41.6,29.3 42,29.3 42.5,29.3 42.8,29.3 43,29.3 43.3,29.3 43.5,29.3 43.7,29.3 43.8,29.3 44,29.3 
				44.1,29.3 44.3,29.4 44.4,29.4 44.5,29.4 44.5,29.4 44.6,29.4 44.7,29.4 44.8,29.5 44.8,29.5 44.4,31.2 			"/>
			<polyline id="XMLID_186_" class="st0" points="44.4,31.2 44.4,31.2 44.3,31.2 44.2,31.2 44.1,31.1 44,31.1 43.9,31.1 43.8,31.1 
				43.7,31.1 43.6,31.1 43.5,31 43.4,31 43.3,31 43.1,31 43,31 42.8,31 42.6,31 42.4,31.1 42.4,31.1 42.2,31.1 42.1,31.1 41.9,31.2 
				41.8,31.2 41.7,31.2 41.6,31.3 41.5,31.4 41.5,31.5 41.4,31.5 41.4,31.6 41.4,31.7 41.4,31.8 41.4,31.9 41.4,32 41.5,32.1 
				41.6,32.2 41.6,32.2 41.7,32.3 41.9,32.5 42.1,32.6 42.3,32.6 42.6,32.7 42.8,32.8 43.1,32.9 43.3,33 43.6,33.1 43.8,33.3 
				44,33.5 44.1,33.7 44.2,34 44.3,34.3 44.3,34.7 44.3,35.2 44.3,35.2 44.3,35.6 44.2,35.9 44.1,36.2 43.9,36.4 43.7,36.6 
				43.5,36.8 43.3,37 43.1,37.1 42.8,37.3 42.6,37.4 42.3,37.4 42.1,37.5 41.8,37.5 41.6,37.6 41.3,37.6 41.1,37.6 41.1,37.6 
				40.7,37.6 40.4,37.6 40.2,37.6 39.9,37.6 39.7,37.6 39.5,37.5 39.3,37.5 39.1,37.5 39,37.5 38.8,37.5 38.7,37.4 38.6,37.4 
				38.4,37.4 38.3,37.3 38.2,37.3 38.1,37.2 38.4,35.6 38.4,35.6 38.5,35.6 38.5,35.6 38.7,35.6 38.8,35.7 38.9,35.7 39.1,35.7 
				39.2,35.8 39.4,35.8 39.6,35.8 39.8,35.8 40,35.9 40.2,35.9 40.4,35.9 40.7,35.9 40.9,35.9 41.1,35.9 41.1,35.9 41.3,35.9 
				41.5,35.8 41.6,35.7 41.7,35.6 41.8,35.5 41.9,35.4 41.9,35.3 42,35.1 42,35.1 42,34.9 41.9,34.7 41.8,34.6 41.6,34.5 41.4,34.3 
				41.1,34.2 40.8,34.1 40.5,34 40.2,33.9 39.9,33.7 39.6,33.5 39.4,33.3 39.2,33 39.1,32.6 39,32.2 39,31.7 39,31.7 39,31.4 
				39.1,31.2 39.2,30.9 39.3,30.7 39.4,30.4 39.5,30.2 39.7,30 39.9,29.9 40.1,29.7 40.3,29.6 40.6,29.5 40.9,29.4 41.3,29.3 
				41.6,29.3 42,29.3 42.5,29.3 42.5,29.3 42.8,29.3 43,29.3 43.3,29.3 43.5,29.3 43.7,29.3 43.8,29.3 44,29.3 44.1,29.3 44.3,29.4 
				44.4,29.4 44.5,29.4 44.5,29.4 44.6,29.4 44.7,29.4 44.8,29.5 44.8,29.5 44.4,31.2 			"/>
			<polygon id="XMLID_185_" class="st0" points="46.2,27.6 48.3,27.6 48,29.4 49.3,29.4 49,31.1 47.7,31.1 47,35.3 46.9,35.5 
				47,35.6 47.1,35.7 47.2,35.8 47.3,35.8 47.4,35.9 47.6,35.9 47.8,35.9 48,35.9 48.1,35.9 48.3,35.9 48.4,35.9 48.5,35.8 
				48.5,35.8 48.6,35.8 48.6,35.8 48.3,37.2 48.3,37.2 48.2,37.3 48.2,37.3 48.1,37.3 48.1,37.4 48,37.4 47.9,37.4 47.9,37.4 
				47.8,37.4 47.7,37.5 47.6,37.5 47.5,37.5 47.4,37.5 47.3,37.5 47.2,37.5 47.1,37.5 46.5,37.5 46.2,37.5 45.9,37.5 45.7,37.5 
				45.5,37.4 45.3,37.3 45.2,37.3 45,37.2 44.9,37.1 44.9,37 44.8,36.8 44.8,36.7 44.7,36.6 44.7,36.4 44.7,36.2 44.8,36.1 
				44.8,35.9 46.2,27.6 			"/>
			<polyline id="XMLID_184_" class="st0" points="46.2,27.6 48.3,27.6 48,29.4 49.3,29.4 49,31.1 47.7,31.1 47,35.3 47,35.3 
				46.9,35.5 47,35.6 47.1,35.7 47.2,35.8 47.3,35.8 47.4,35.9 47.6,35.9 47.8,35.9 47.8,35.9 48,35.9 48.1,35.9 48.3,35.9 
				48.4,35.9 48.5,35.8 48.5,35.8 48.6,35.8 48.6,35.8 48.3,37.2 48.3,37.2 48.3,37.2 48.2,37.3 48.2,37.3 48.1,37.3 48.1,37.4 
				48,37.4 47.9,37.4 47.9,37.4 47.8,37.4 47.7,37.5 47.6,37.5 47.5,37.5 47.4,37.5 47.3,37.5 47.2,37.5 47.1,37.5 46.5,37.5 
				46.5,37.5 46.2,37.5 45.9,37.5 45.7,37.5 45.5,37.4 45.3,37.3 45.2,37.3 45,37.2 44.9,37.1 44.9,37 44.8,36.8 44.8,36.7 
				44.7,36.6 44.7,36.4 44.7,36.2 44.8,36.1 44.8,35.9 46.2,27.6 			"/>
			<polyline id="XMLID_183_" class="st0" points="51,34 51,34 50.9,34.1 50.9,34.3 51,34.4 51,34.5 51,34.7 51.1,34.8 51.2,35 
				51.3,35.1 51.4,35.2 51.5,35.3 51.6,35.5 51.7,35.6 51.9,35.6 52,35.7 52.2,35.8 52.3,35.8 52.3,35.8 52.5,35.8 52.7,35.8 
				52.9,35.9 53.1,35.9 53.3,35.9 53.5,35.9 53.7,35.9 53.9,35.9 54.1,35.8 54.3,35.8 54.6,35.8 54.8,35.7 55,35.6 55.2,35.5 
				55.4,35.4 55.6,35.3 55.3,37.1 55.3,37.1 55.2,37.2 55.1,37.2 55,37.3 54.8,37.3 54.7,37.4 54.6,37.4 54.5,37.4 54.4,37.5 
				54.2,37.5 54.1,37.5 53.9,37.5 53.7,37.5 53.5,37.5 53.3,37.5 53.1,37.5 52.8,37.5 52.8,37.5 52.5,37.5 52.1,37.5 51.7,37.5 
				51.3,37.4 51,37.2 50.6,37.1 50.3,36.9 49.9,36.7 49.6,36.4 49.4,36.1 49.2,35.8 49,35.4 48.9,34.9 48.8,34.4 48.8,33.9 
				48.8,33.2 48.8,33.2 48.8,33 48.9,32.7 48.9,32.4 49,32.1 49.1,31.8 49.3,31.4 49.4,31.1 49.6,30.8 49.9,30.5 50.2,30.2 
				50.5,29.9 50.9,29.7 51.3,29.5 51.8,29.4 52.4,29.3 53,29.3 53,29.3 53.3,29.3 53.6,29.3 53.9,29.3 54.2,29.4 54.5,29.5 
				54.8,29.7 55.1,29.9 55.3,30.1 55.6,30.3 55.8,30.6 55.9,31 56,31.4 56.1,31.8 56.1,32.4 56,32.9 55.9,33.6 55.9,34 50.4,34 
				50.7,32.5 54,32.5 54,32.5 54,32.3 54,32.2 54,32 54,31.8 53.9,31.7 53.9,31.6 53.8,31.5 53.7,31.4 53.6,31.3 53.5,31.2 
				53.4,31.1 53.3,31.1 53.2,31 53.1,31 52.9,31 52.8,30.9 52.8,30.9 52.7,31 52.5,31 52.4,31 52.3,31.1 52.1,31.1 52,31.2 
				51.9,31.3 51.8,31.4 51.7,31.5 51.6,31.6 51.5,31.7 51.5,31.8 51.4,32 51.3,32.1 51.3,32.3 51.3,32.4 51,34 			"/>
			<polygon id="XMLID_182_" class="st0" points="69.1,29.9 69,29.8 68.9,29.8 68.8,29.7 68.7,29.7 68.5,29.6 68.4,29.6 68.3,29.5 
				68.1,29.5 68,29.5 67.9,29.4 67.7,29.4 67.5,29.4 67.4,29.3 67.2,29.3 67,29.3 66.8,29.3 66.6,29.3 66.4,29.3 66.2,29.4 66,29.4 
				65.8,29.5 65.6,29.6 65.4,29.7 65.2,29.8 65,30 64.8,30.2 64.6,30.4 64.4,30.7 64.2,31 64.1,31.4 63.9,31.8 63.8,32.3 63.8,32.6 
				63.7,32.8 63.7,33.1 63.7,33.4 63.7,33.6 63.8,33.9 63.9,34.1 63.9,34.3 64.1,34.5 64.2,34.7 64.4,34.9 64.5,35.1 64.7,35.2 
				65,35.3 65.2,35.4 65.5,35.5 65.6,35.5 65.7,35.5 65.9,35.5 66,35.6 66.2,35.6 66.4,35.6 66.6,35.6 66.7,35.6 66.9,35.5 
				67.1,35.5 67.3,35.4 67.5,35.4 67.7,35.3 67.9,35.2 68,35.1 68.2,34.9 67.9,37 67.8,37 67.8,37.1 67.7,37.1 67.6,37.2 67.5,37.2 
				67.4,37.3 67.3,37.3 67.2,37.4 67,37.4 66.8,37.5 66.6,37.5 66.3,37.5 66,37.5 65.7,37.5 65.3,37.5 64.9,37.5 64.5,37.5 
				64.2,37.4 63.8,37.3 63.5,37.1 63.1,37 62.8,36.7 62.5,36.5 62.2,36.2 62,35.8 61.8,35.4 61.6,35 61.5,34.5 61.4,34 61.3,33.5 
				61.3,32.9 61.4,32.3 61.5,32 61.6,31.7 61.6,31.4 61.7,31.1 61.8,30.8 61.9,30.6 62,30.3 62.1,30.1 62.2,29.8 62.3,29.6 
				62.5,29.4 62.6,29.2 62.7,29 62.9,28.8 63,28.7 63.2,28.5 63.4,28.3 63.5,28.2 63.7,28.1 63.9,28 64.1,27.8 64.3,27.7 64.5,27.7 
				64.8,27.6 65,27.5 65.2,27.4 65.5,27.4 65.7,27.3 66,27.3 66.3,27.3 66.5,27.2 66.8,27.2 67.1,27.2 67.3,27.3 67.5,27.3 
				67.8,27.3 68,27.3 68.2,27.4 68.4,27.4 68.5,27.5 68.7,27.5 68.9,27.6 69,27.6 69.1,27.7 69.2,27.7 69.3,27.7 69.4,27.8 
				69.5,27.8 69.1,29.9 			"/>
			<polyline id="XMLID_181_" class="st0" points="69.1,29.9 69.1,29.9 69,29.8 68.9,29.8 68.8,29.7 68.7,29.7 68.5,29.6 68.4,29.6 
				68.3,29.5 68.1,29.5 68,29.5 67.9,29.4 67.7,29.4 67.5,29.4 67.4,29.3 67.2,29.3 67,29.3 66.8,29.3 66.8,29.3 66.6,29.3 
				66.4,29.3 66.2,29.4 66,29.4 65.8,29.5 65.6,29.6 65.4,29.7 65.2,29.8 65,30 64.8,30.2 64.6,30.4 64.4,30.7 64.2,31 64.1,31.4 
				63.9,31.8 63.8,32.3 63.8,32.3 63.8,32.6 63.7,32.8 63.7,33.1 63.7,33.4 63.7,33.6 63.8,33.9 63.9,34.1 63.9,34.3 64.1,34.5 
				64.2,34.7 64.4,34.9 64.5,35.1 64.7,35.2 65,35.3 65.2,35.4 65.5,35.5 65.5,35.5 65.6,35.5 65.7,35.5 65.9,35.5 66,35.6 
				66.2,35.6 66.4,35.6 66.6,35.6 66.7,35.6 66.9,35.5 67.1,35.5 67.3,35.4 67.5,35.4 67.7,35.3 67.9,35.2 68,35.1 68.2,34.9 
				67.9,37 67.9,37 67.8,37 67.8,37.1 67.7,37.1 67.6,37.2 67.5,37.2 67.4,37.3 67.3,37.3 67.2,37.4 67,37.4 66.8,37.5 66.6,37.5 
				66.3,37.5 66,37.5 65.7,37.5 65.3,37.5 64.9,37.5 64.9,37.5 64.5,37.5 64.2,37.4 63.8,37.3 63.5,37.1 63.1,37 62.8,36.7 
				62.5,36.5 62.2,36.2 62,35.8 61.8,35.4 61.6,35 61.5,34.5 61.4,34 61.3,33.5 61.3,32.9 61.4,32.3 61.4,32.3 61.5,32 61.6,31.7 
				61.6,31.4 61.7,31.1 61.8,30.8 61.9,30.6 62,30.3 62.1,30.1 62.2,29.8 62.3,29.6 62.5,29.4 62.6,29.2 62.7,29 62.9,28.8 63,28.7 
				63.2,28.5 63.4,28.3 63.5,28.2 63.7,28.1 63.9,28 64.1,27.8 64.3,27.7 64.5,27.7 64.8,27.6 65,27.5 65.2,27.4 65.5,27.4 
				65.7,27.3 66,27.3 66.3,27.3 66.5,27.2 66.8,27.2 66.8,27.2 67.1,27.2 67.3,27.3 67.5,27.3 67.8,27.3 68,27.3 68.2,27.4 
				68.4,27.4 68.5,27.5 68.7,27.5 68.9,27.6 69,27.6 69.1,27.7 69.2,27.7 69.3,27.7 69.4,27.8 69.5,27.8 69.1,29.9 			"/>
			<polygon id="XMLID_180_" class="st0" points="21.7,37.5 19.7,37.5 21.4,27.6 25,27.6 25.3,33.5 27.8,27.6 31.6,27.6 29.8,37.5 
				27.7,37.5 29,30.1 29,30.1 25.9,37.5 23.5,37.5 23.5,37.2 23.5,36.4 23.4,35.2 23.3,33.9 23.2,32.5 23.2,31.3 23.1,30.5 
				23.1,30.1 23.1,30.1 23,30.1 23,30.1 23,30.1 21.7,37.5 			"/>
			<polyline id="XMLID_179_" class="st0" points="21.7,37.5 19.7,37.5 21.4,27.6 25,27.6 25.3,33.5 27.8,27.6 31.6,27.6 29.8,37.5 
				27.7,37.5 29,30.1 29,30.1 25.9,37.5 23.5,37.5 23.5,37.5 23.5,37.2 23.5,36.4 23.4,35.2 23.3,33.9 23.2,32.5 23.2,31.3 
				23.1,30.5 23.1,30.1 23.1,30.1 23.1,30.1 23,30.1 23,30.1 23,30.1 21.7,37.5 			"/>
			<polygon id="XMLID_178_" class="st0" points="75.1,37.6 75.1,37.6 75.4,35.9 75.3,35.9 75,37.5 75.1,37.5 75.1,37.6 75.1,37.6 
				75.1,37.6 75.1,37.6 			"/>
			<polygon id="XMLID_177_" class="st0" points="73.1,37.5 73.2,37.6 75.1,37.6 75.1,37.5 73.2,37.5 73.2,37.5 73.1,37.5 73.1,37.6 
				73.2,37.6 73.1,37.5 			"/>
			<polygon id="XMLID_176_" class="st0" points="73.2,36.7 73.2,36.6 73.1,36.8 73.1,37 73.1,37.2 73.1,37.5 73.2,37.5 73.2,37.2 
				73.2,37 73.2,36.8 73.2,36.7 73.2,36.6 73.2,36.7 			"/>
			<polygon id="XMLID_175_" class="st0" points="70.3,37.7 70.3,37.7 70.5,37.7 70.7,37.7 70.9,37.7 71.1,37.7 71.4,37.7 71.6,37.6 
				71.8,37.6 72,37.5 72.2,37.4 72.4,37.3 72.6,37.3 72.7,37.1 72.9,37 73,36.9 73.1,36.8 73.2,36.7 73.2,36.6 73.1,36.8 73,36.9 
				72.8,37 72.7,37.1 72.5,37.2 72.3,37.3 72.2,37.3 72,37.4 71.8,37.5 71.6,37.5 71.3,37.6 71.1,37.6 70.9,37.6 70.7,37.6 
				70.5,37.6 70.3,37.6 70.3,37.6 70.3,37.7 			"/>
			<polygon id="XMLID_174_" class="st0" points="68.5,35.4 68.5,35.4 68.5,35.5 68.5,35.7 68.5,35.9 68.5,36.1 68.6,36.2 68.6,36.4 
				68.7,36.6 68.8,36.7 68.9,36.9 69,37 69.2,37.2 69.3,37.3 69.5,37.4 69.8,37.5 70,37.6 70.3,37.7 70.3,37.6 70,37.5 69.8,37.4 
				69.6,37.3 69.4,37.2 69.2,37.1 69.1,37 69,36.8 68.9,36.7 68.8,36.5 68.7,36.4 68.7,36.2 68.6,36 68.6,35.9 68.6,35.7 68.5,35.5 
				68.6,35.4 68.6,35.4 68.5,35.4 			"/>
			<polygon id="XMLID_173_" class="st0" points="71.2,32.5 71.2,32.5 70.9,32.5 70.7,32.6 70.4,32.7 70.2,32.8 69.9,32.9 69.7,33 
				69.5,33.2 69.3,33.4 69.1,33.6 69,33.8 68.8,34 68.7,34.3 68.6,34.5 68.5,34.8 68.5,35.1 68.5,35.4 68.6,35.4 68.6,35.1 
				68.6,34.8 68.7,34.5 68.8,34.3 68.9,34 69,33.8 69.2,33.6 69.4,33.4 69.5,33.3 69.8,33.1 70,33 70.2,32.8 70.4,32.7 70.7,32.7 
				70.9,32.6 71.2,32.5 71.2,32.5 71.2,32.5 			"/>
			<polygon id="XMLID_172_" class="st0" points="72.7,32.3 72.7,32.3 72.7,32.3 72.5,32.3 72.4,32.3 72.3,32.3 72.2,32.3 72.1,32.3 
				71.9,32.4 71.8,32.4 71.7,32.4 71.6,32.4 71.5,32.4 71.4,32.4 71.3,32.4 71.2,32.4 71.2,32.5 71.2,32.5 71.2,32.5 71.2,32.5 
				71.2,32.5 71.3,32.5 71.4,32.5 71.5,32.5 71.6,32.5 71.7,32.5 71.8,32.5 71.9,32.5 72.1,32.4 72.2,32.4 72.3,32.4 72.4,32.4 
				72.5,32.4 72.7,32.4 72.7,32.4 72.7,32.4 72.7,32.3 			"/>
			<polygon id="XMLID_171_" class="st0" points="73.8,32.4 73.8,32.3 73.8,32.3 73.7,32.3 73.6,32.3 73.4,32.3 73.3,32.3 73.1,32.3 
				72.9,32.3 72.7,32.3 72.7,32.4 72.9,32.4 73.1,32.4 73.3,32.4 73.4,32.4 73.6,32.4 73.7,32.4 73.8,32.4 73.8,32.4 73.9,32.4 
				73.8,32.4 73.8,32.4 73.9,32.4 73.8,32.4 			"/>
			<polygon id="XMLID_170_" class="st0" points="73.8,31.9 73.8,31.9 73.8,32 73.8,32.2 73.8,32.3 73.8,32.4 73.9,32.4 73.9,32.3 
				73.9,32.2 73.9,32 73.9,31.9 73.9,31.9 73.8,31.9 			"/>
			<polygon id="XMLID_169_" class="st0" points="72.9,31.1 72.9,31.2 73.1,31.2 73.3,31.2 73.4,31.3 73.6,31.4 73.7,31.5 73.7,31.6 
				73.8,31.7 73.8,31.9 73.9,31.9 73.9,31.7 73.8,31.6 73.7,31.4 73.6,31.3 73.5,31.2 73.3,31.1 73.1,31.1 72.9,31 72.9,31.1 
				72.9,31.1 			"/>
			<polygon id="XMLID_168_" class="st0" points="69.7,31.5 69.8,31.6 69.8,31.5 69.9,31.5 70.1,31.4 70.2,31.4 70.4,31.3 70.6,31.3 
				70.8,31.3 71,31.2 71.3,31.2 71.5,31.2 71.8,31.2 72,31.1 72.3,31.1 72.5,31.1 72.7,31.1 72.9,31.1 72.9,31.1 72.7,31 72.5,31 
				72.3,31 72,31 71.8,31.1 71.5,31.1 71.3,31.1 71,31.1 70.8,31.2 70.6,31.2 70.4,31.2 70.2,31.3 70,31.3 69.9,31.4 69.8,31.4 
				69.7,31.5 69.8,31.5 69.7,31.5 			"/>
			<polygon id="XMLID_167_" class="st0" points="70.2,29.6 70.2,29.7 69.7,31.5 69.8,31.5 70.3,29.7 70.3,29.7 70.2,29.6 70.2,29.6 
				70.2,29.7 70.2,29.6 			"/>
			<polygon id="XMLID_166_" class="st0" points="73.6,29.3 73.6,29.3 73.4,29.3 73.1,29.3 72.9,29.3 72.6,29.3 72.4,29.3 72.2,29.3 
				71.9,29.3 71.7,29.3 71.5,29.3 71.3,29.3 71.1,29.4 70.9,29.4 70.8,29.5 70.6,29.5 70.4,29.6 70.2,29.6 70.3,29.7 70.4,29.7 
				70.6,29.6 70.8,29.5 71,29.5 71.2,29.5 71.3,29.4 71.5,29.4 71.7,29.4 71.9,29.4 72.2,29.4 72.4,29.4 72.6,29.4 72.9,29.4 
				73.1,29.4 73.4,29.4 73.6,29.4 73.6,29.4 73.6,29.3 			"/>
			<polygon id="XMLID_165_" class="st0" points="76.2,31.9 76.2,31.9 76.3,31.6 76.3,31.3 76.2,31 76.1,30.7 76,30.5 75.8,30.3 
				75.7,30.1 75.5,29.9 75.3,29.8 75,29.7 74.8,29.6 74.6,29.5 74.3,29.4 74.1,29.3 73.8,29.3 73.6,29.3 73.6,29.4 73.8,29.4 
				74.1,29.4 74.3,29.5 74.5,29.6 74.8,29.6 75,29.8 75.2,29.9 75.4,30 75.6,30.2 75.8,30.4 75.9,30.6 76,30.8 76.1,31 76.2,31.3 
				76.2,31.6 76.1,31.8 76.1,31.8 76.2,31.9 			"/>
			<polygon id="XMLID_164_" class="st0" points="75.4,35.9 75.4,35.9 76.2,31.9 76.1,31.8 75.3,35.9 75.3,35.9 75.4,35.9 			"/>
			<polygon id="XMLID_163_" class="st0" points="76,37.5 78.1,37.5 78.1,37.5 78.9,33.2 78.9,33.1 78.9,32.9 79,32.7 79,32.6 
				79.1,32.4 79.2,32.2 79.3,32.1 79.4,31.9 79.6,31.8 79.7,31.7 79.9,31.6 80.1,31.5 80.3,31.4 80.5,31.3 80.8,31.3 81.1,31.3 
				81.2,31.3 81.3,31.3 81.3,31.3 81.3,31.3 81.6,29.3 81.4,29.3 81.2,29.4 81,29.4 80.9,29.5 80.7,29.5 80.5,29.6 80.4,29.7 
				80.2,29.8 80.1,29.9 80,30 79.8,30.1 79.7,30.2 79.6,30.4 79.5,30.5 79.4,30.6 79.3,30.8 79.5,29.4 77.4,29.4 76,37.5 76,37.5 
							"/>
			<polyline id="XMLID_162_" class="st0" points="76,37.5 78.1,37.5 78.1,37.5 78.9,33.2 78.9,33.2 78.9,33.1 78.9,32.9 79,32.7 
				79,32.6 79.1,32.4 79.2,32.2 79.3,32.1 79.4,31.9 79.6,31.8 79.7,31.7 79.9,31.6 80.1,31.5 80.3,31.4 80.5,31.3 80.8,31.3 
				81.1,31.3 81.1,31.3 81.2,31.3 81.3,31.3 81.3,31.3 81.3,31.3 81.6,29.3 81.6,29.3 81.4,29.3 81.2,29.4 81,29.4 80.9,29.5 
				80.7,29.5 80.5,29.6 80.4,29.7 80.2,29.8 80.1,29.9 80,30 79.8,30.1 79.7,30.2 79.6,30.4 79.5,30.5 79.4,30.6 79.3,30.8 
				79.5,29.4 77.4,29.4 76,37.5 76,37.5 			"/>
			<polygon id="XMLID_161_" class="st0" points="55.8,37.5 58,37.5 58,37.5 58.8,33.2 58.8,33.1 58.8,32.9 58.9,32.7 58.9,32.6 
				59,32.4 59.1,32.3 59.1,32.2 59.2,32 59.4,31.9 59.5,31.8 59.7,31.7 59.9,31.6 60.1,31.6 60.3,31.5 60.6,31.5 60.9,31.4 
				60.9,31.4 60.9,31.4 61,31.5 61,31.5 61,31.5 61.1,31.5 61.1,31.5 61.1,31.5 61.1,31.4 61.1,31.4 61.1,31.2 61.2,31.1 61.2,30.9 
				61.3,30.6 61.4,30.4 61.4,30.2 61.5,30.1 61.6,29.9 61.6,29.8 61.7,29.7 61.8,29.5 61.8,29.5 61.9,29.4 61.9,29.4 61.9,29.4 
				61.9,29.4 61.8,29.4 61.8,29.3 61.7,29.3 61.6,29.3 61.6,29.3 61.5,29.3 61.3,29.3 61.1,29.4 60.9,29.4 60.7,29.5 60.5,29.5 
				60.4,29.6 60.2,29.7 60.1,29.8 60,29.9 59.8,30 59.7,30.1 59.6,30.2 59.5,30.3 59.4,30.5 59.3,30.6 59.2,30.8 59.4,29.4 
				57.3,29.4 55.8,37.5 55.8,37.5 			"/>
			<polyline id="XMLID_160_" class="st0" points="55.8,37.5 58,37.5 58,37.5 58.8,33.2 58.8,33.2 58.8,33.1 58.8,32.9 58.9,32.7 
				58.9,32.6 59,32.4 59.1,32.3 59.1,32.2 59.2,32 59.4,31.9 59.5,31.8 59.7,31.7 59.9,31.6 60.1,31.6 60.3,31.5 60.6,31.5 
				60.9,31.4 60.9,31.4 60.9,31.4 60.9,31.4 61,31.5 61,31.5 61,31.5 61.1,31.5 61.1,31.5 61.1,31.5 61.1,31.5 61.1,31.4 61.1,31.4 
				61.1,31.2 61.2,31.1 61.2,30.9 61.3,30.6 61.4,30.4 61.4,30.2 61.4,30.2 61.5,30.1 61.6,29.9 61.6,29.8 61.7,29.7 61.8,29.5 
				61.8,29.5 61.9,29.4 61.9,29.4 61.9,29.4 61.9,29.4 61.9,29.4 61.8,29.4 61.8,29.3 61.7,29.3 61.6,29.3 61.6,29.3 61.5,29.3 
				61.5,29.3 61.3,29.3 61.1,29.4 60.9,29.4 60.7,29.5 60.5,29.5 60.4,29.6 60.2,29.7 60.1,29.8 60,29.9 59.8,30 59.7,30.1 
				59.6,30.2 59.5,30.3 59.4,30.5 59.3,30.6 59.2,30.8 59.4,29.4 57.3,29.4 55.8,37.5 55.8,37.5 			"/>
			<path id="XMLID_157_" class="st0" d="M56.1,31.8L56,31.4L55.9,31l-0.1-0.3l-0.2-0.3l-0.2-0.3l-0.2-0.2l-0.3-0.2l-0.3-0.1
				l-0.3-0.1l-0.3-0.1l-0.3-0.1l-0.3,0l-0.3,0l-0.6,0l-0.5,0.1l-0.5,0.1l-0.4,0.2l-0.4,0.2l-0.3,0.3l-0.3,0.3l-0.2,0.3l-0.2,0.3
				l-0.2,0.3l-0.1,0.3L49,32.1l-0.1,0.3l-0.1,0.3l0,0.3l0,0.2l0,0.6l0,0.6l0.1,0.5l0.1,0.4l0.2,0.4l0.2,0.3l0.3,0.3l0.3,0.3l0.3,0.2
				l0.3,0.2l0.4,0.1l0.4,0.1l0.4,0.1l0.4,0.1l0.4,0l0.4,0h0.2l0.2,0h0.2l0.2,0l0.2,0l0.2,0l0.2,0l0.1,0l0.1,0l0.1,0l0.1,0l0.1,0
				l0.1,0l0.1,0l0.1-0.1l0.1-0.1l0.3-1.9l-0.2,0.1l-0.2,0.1L55,35.6l-0.2,0.1l-0.2,0.1l-0.2,0l-0.2,0l-0.2,0l-0.2,0l-0.2,0h-0.2
				l-0.2,0l-0.2,0l-0.2,0l-0.2,0l-0.2,0l-0.2,0L52,35.7l-0.1-0.1l-0.1-0.1l-0.1-0.1l-0.1-0.1l-0.1-0.1l-0.1-0.1L51.2,35l-0.1-0.1
				L51,34.7L51,34.5l0-0.1l0-0.1l0-0.1l0-0.1h4.9l0-0.5l0.1-0.6l0.1-0.6L56.1,31.8z M54,32.5h-2.8l0,0h0l0-0.1l0-0.2l0-0.2l0.1-0.2
				l0.1-0.1l0.1-0.1l0.1-0.1l0.1-0.1l0.1-0.1l0.1-0.1l0.1-0.1l0.1-0.1l0.1-0.1l0.1,0l0.1,0l0.1,0l0.1,0l0.1,0l0.1,0l0.1,0l0.1,0
				l0.1,0.1l0.1,0.1l0.1,0.1l0.1,0.1l0.1,0.1l0.1,0.1l0.1,0.1l0.1,0.1l0,0.1l0,0.2l0,0.2L54,32.5z"/>
			<path id="XMLID_154_" class="st0" d="M76.2,31l-0.1-0.2L76,30.5l-0.2-0.2l-0.2-0.2L75.4,30l-0.2-0.1L75,29.7l-0.2-0.1l-0.2-0.1
				l-0.2-0.1l-0.2-0.1l-0.2,0l-0.2,0l-0.3,0l-0.3,0h-0.2h-0.2h-0.2l-0.2,0l-0.2,0l-0.2,0l-0.2,0l-0.2,0l-0.2,0l-0.2,0l-0.2,0
				l-0.2,0.1l-0.2,0.1l-0.2,0.1l-0.5,1.8l0.1,0l0.1-0.1l0.1,0l0.2,0l0.2,0l0.2,0l0.2,0l0.2,0l0.2,0l0.2,0l0.2,0l0.2,0l0.2,0h0.2
				l0.2,0l0.2,0l0.2,0l0.2,0l0.2,0.1l0.1,0.1l0.1,0.1l0.1,0.1l0.1,0.2l0,0.2l0,0.1l0,0.2l0,0.1l0,0.1h0l-0.1,0l-0.1,0l-0.1,0h-0.2
				l-0.2,0l-0.2,0h-0.2h-0.1l-0.1,0l-0.1,0l-0.1,0l-0.1,0l-0.1,0l-0.1,0l-0.1,0l-0.1,0l-0.1,0l-0.1,0l-0.1,0l-0.1,0l-0.1,0l0,0h0
				l-0.3,0l-0.3,0.1l-0.2,0.1l-0.2,0.1l-0.2,0.1l-0.2,0.1l-0.2,0.2l-0.2,0.2l-0.2,0.2L69,33.8L68.8,34l-0.1,0.2l-0.1,0.3l-0.1,0.3
				l0,0.3l0,0.3v0.2l0,0.2l0,0.2l0,0.2l0,0.2l0.1,0.2l0.1,0.2l0.1,0.2l0.1,0.2l0.1,0.1l0.1,0.1l0.2,0.1l0.2,0.1l0.2,0.1l0.2,0.1
				l0.3,0.1l0.2,0l0.2,0l0.2,0l0.2,0l0.2,0l0.2,0l0.2-0.1l0.2-0.1l0.2-0.1l0.2-0.1l0.2-0.1l0.2-0.1l0.2-0.1l0.1-0.1l0.1-0.1l0.1-0.1
				l0,0.1V37l0,0.3l0,0.3h1.9l0.3-1.7l0.8-4l0-0.3v-0.3L76.2,31z M73.5,34.1l0,0.2l0,0.2l0,0.2l0,0.1l0,0.1l0,0.1l-0.1,0.1l-0.1,0.1
				l-0.1,0.1L73,35.4l-0.1,0.1l-0.1,0.1l-0.1,0.1l-0.1,0.1l-0.2,0.1l-0.2,0.1l-0.2,0l-0.2,0l-0.2,0l-0.1,0l-0.1,0l-0.1,0l-0.1-0.1
				L71,35.6l-0.1-0.2l0-0.2l0-0.3l0-0.1l0-0.1l0.1-0.1l0.1-0.1l0.1-0.1l0.1-0.1l0.1-0.1l0.1-0.1l0.1-0.1l0.1-0.1l0.1,0l0.1,0l0.1,0
				l0.1,0l0.1,0l0.1,0l0.1,0l0.1,0l0.1,0l0.1,0l0.1,0l0.1,0l0.1,0l0.1,0l0.1,0h0.1l0.1,0l0.1,0l0.1,0l0.1,0l0,0l0,0L73.5,34.1z"/>
			<path id="XMLID_151_" class="st0" d="M38.5,31l-0.1-0.2l-0.1-0.2l-0.2-0.2L38,30.1L37.8,30l-0.2-0.1l-0.2-0.1l-0.2-0.1l-0.2-0.1
				l-0.2-0.1l-0.2-0.1l-0.2,0l-0.2,0l-0.3,0l-0.3,0h-0.2h-0.2h-0.2l-0.2,0l-0.2,0l-0.2,0l-0.2,0l-0.2,0l-0.2,0l-0.2,0l-0.2,0
				l-0.2,0.1l-0.2,0.1l-0.2,0.1L32,31.5l0.1,0l0.1-0.1l0.1,0l0.2,0l0.2,0l0.2,0l0.2,0l0.2,0l0.2,0l0.2,0l0.2,0l0.3,0l0.2,0h0.2
				l0.2,0l0.2,0l0.2,0l0.2,0l0.2,0.1l0.1,0.1l0.1,0.1l0.1,0.1l0.1,0.2l0,0.2l0,0.1l0,0.2l0,0.1l0,0.1h0l-0.1,0l-0.1,0l-0.1,0h-0.2
				l-0.2,0l-0.2,0h-0.2H35l-0.1,0l-0.1,0l-0.1,0l-0.1,0l-0.1,0l-0.1,0l-0.1,0l-0.1,0l-0.1,0l-0.1,0l-0.1,0l-0.1,0l-0.1,0l0,0h0
				l-0.3,0L33,32.6l-0.3,0.1l-0.2,0.1l-0.2,0.1L32,33.1l-0.2,0.2l-0.2,0.2l-0.2,0.2l-0.2,0.2L31.2,34L31,34.3l-0.1,0.3l-0.1,0.3
				l0,0.3l0,0.3v0.2l0,0.2l0,0.2l0,0.2l0,0.2l0.1,0.2l0.1,0.2l0.1,0.2l0.1,0.2l0.1,0.1l0.2,0.1l0.2,0.1l0.2,0.1l0.2,0.1l0.2,0.1
				l0.3,0.1l0.2,0l0.2,0l0.2,0l0.2,0l0.2,0l0.2,0l0.2-0.1l0.2-0.1l0.2-0.1l0.2-0.1l0.2-0.1l0.2-0.1l0.2-0.1l0.1-0.1l0.1-0.1l0.1-0.1
				l0,0.1l0,0.2l0,0.3l-0.1,0.3h1.9l0.3-1.7l0.8-4l0-0.3v-0.3L38.5,31z M35.8,34.1l0,0.2l-0.1,0.3l-0.1,0.2l0,0.1l0,0.1l0,0.1
				l-0.1,0.1l-0.1,0.1l-0.1,0.1l-0.1,0.1l-0.1,0.1l-0.1,0.1L35,35.6l-0.1,0.1l-0.1,0.1l-0.2,0l-0.2,0l-0.2,0l-0.2,0l-0.1,0l-0.1,0
				l-0.1,0l-0.1-0.1l-0.1-0.1l-0.1-0.2l0-0.2l0-0.3l0-0.1l0-0.1l0.1-0.1l0.1-0.1l0.1-0.1l0.1-0.1l0.1-0.1l0.1-0.1l0.1-0.1l0.1-0.1
				L34,34l0.1,0l0.1,0l0.1,0l0.1,0l0.1,0l0.1,0l0.1,0l0.1,0l0.1,0l0.1,0l0.1,0l0.1,0l0.1,0h0.1h0.1l0.1,0l0.1,0l0.1,0l0,0l0,0l0,0
				L35.8,34.1z"/>
		</g>
	</g>
	<path id="XMLID_146_" class="st0" d="M87.4,27.7l-0.5,3l0-0.1l-0.1-0.1l-0.1-0.1l-0.1-0.1l-0.1-0.1l-0.1-0.1L86.3,30L86.2,30
		l-0.1-0.1l-0.2-0.1l-0.2-0.1l-0.2-0.1l-0.2-0.1l-0.2,0l-0.2,0l-0.2,0l-0.3,0l-0.3,0l-0.3,0.1l-0.3,0.1l-0.3,0.1L83,30.1l-0.3,0.2
		l-0.3,0.2l-0.3,0.3L81.9,31l-0.2,0.3l-0.2,0.3L81.3,32l-0.2,0.4L81,32.8l-0.1,0.4l-0.1,0.4l0,0.4l0,0.4l0,0.4l0.1,0.4l0.1,0.4
		l0.1,0.4l0.1,0.3l0.2,0.3l0.2,0.3l0.2,0.3l0.3,0.2l0.3,0.2l0.3,0.1l0.4,0.1l0.4,0h0.2l0.2,0l0.1,0l0.1,0l0.2,0l0.1,0l0.1,0l0.1-0.1
		l0.1-0.1l0.1-0.1l0.1-0.1l0.1-0.1l0.1-0.1l0.1-0.1l0.1-0.1l0.1-0.2v0.1l-0.2,0.8h2.1l1.7-9.9L87.4,27.7L87.4,27.7z M86.4,33.3
		l0,0.2l0,0.2l0,0.2l-0.1,0.2l-0.1,0.2l-0.1,0.2L86,34.7l-0.1,0.2L85.8,35l-0.1,0.2l-0.1,0.1l-0.1,0.1l-0.1,0.1l-0.2,0.1l-0.2,0.1
		l-0.2,0.1l-0.2,0l-0.2,0L84,35.8l-0.2-0.2l-0.2-0.2L83.4,35l-0.1-0.4l-0.1-0.4l0-0.4l0-0.3l0-0.2l0.1-0.2l0.1-0.2l0.1-0.2l0.1-0.2
		l0.1-0.2l0.1-0.2l0.1-0.2l0.1-0.1l0.1-0.1l0.2-0.1l0.2-0.1l0.2-0.1l0.2-0.1l0.2,0l0.2,0l0.2,0l0.1,0l0.1,0.1l0.1,0.1l0.1,0.1
		l0.1,0.1l0.1,0.1l0.1,0.2l0.1,0.2l0.1,0.2l0,0.2l0,0.2l0,0.2L86.4,33.3L86.4,33.3z"/>
</g>
<g id="XMLID_144_">
</g>
<g id="XMLID_204_">
</g>
<g id="XMLID_205_">
</g>
<g id="XMLID_206_">
</g>
<g id="XMLID_207_">
</g>
<g id="XMLID_208_">
</g>
</svg>
